<svg width="16" height="119" viewBox="0 0 16 119" fill="none" xmlns="http://www.w3.org/2000/svg">
<g id="Group 95">
<path id="Arrow 1" d="M8.09281 112.354C7.89755 112.55 7.58097 112.55 7.3857 112.354L4.20372 109.172C4.00846 108.977 4.00846 108.661 4.20372 108.465C4.39899 108.27 4.71557 108.27 4.91083 108.465L7.73926 111.294L10.5677 108.465C10.7629 108.27 11.0795 108.27 11.2748 108.465C11.4701 108.661 11.4701 108.977 11.2748 109.172L8.09281 112.354ZM8.23926 0.998047L8.23926 112.001H7.23926L7.23926 0.998047L8.23926 0.998047Z" fill="#232636"/>
<g id="Down">
<path id="Vector 140" d="M15 112L8.78095 117.331C8.33156 117.716 7.66844 117.716 7.21905 117.331L1 112" stroke="#232636" stroke-width="1.5" stroke-linecap="round"/>
</g>
</g>
</svg>
