<svg width="65" height="70" viewBox="0 0 65 70" fill="none" xmlns="http://www.w3.org/2000/svg">
<path d="M0 0L5.91578 62.9812L32.4606 70L59.0795 62.9555L65 0H0ZM52.7101 14.4293L50.741 35.4104L50.7468 35.5236L50.7386 35.7842V35.7819L49.3395 50.4522L49.1854 51.7556L32.5 56.132V56.1326L32.4871 56.1432L15.8305 51.7422L14.7027 39.6133H22.8706L23.4501 45.7807L32.5024 48.1073L32.5 48.1117V48.1106L41.5858 45.7511L42.5459 35.7077H23.5525L23.3895 34.0099L23.0183 30.0324L22.8235 27.8967H43.2678L44.0115 20.0856H12.8729L12.7099 18.3889L12.3393 14.4103L12.144 12.2745H52.9049L52.7101 14.4293Z" fill="#1572B6"/>
</svg>
