<svg width="25" height="25" viewBox="0 0 25 25" fill="none" xmlns="http://www.w3.org/2000/svg">
<g id="Group 90">
<path id="Rectangle 80" d="M0.5 6C0.5 2.96243 2.96243 0.5 6 0.5H18.3578C18.7353 0.5 19.0989 0.642313 19.376 0.898545L24.0182 5.19C24.3254 5.47392 24.5 5.87319 24.5 6.29145V19C24.5 22.0376 22.0376 24.5 19 24.5H5.84722C5.47593 24.5 5.11783 24.3623 4.8422 24.1135L0.994976 20.6412C0.679857 20.3567 0.5 19.9521 0.5 19.5276V6Z" stroke="black"/>
<path id="Vector 141" d="M17 12L13.1656 14.5562C12.7626 14.825 12.2374 14.825 11.8344 14.5562L8 12" stroke="black" stroke-linecap="round"/>
</g>
</svg>
