<svg width="363" height="380" viewBox="0 0 363 380" fill="none" xmlns="http://www.w3.org/2000/svg">
<g filter="url(#filter0_d_1469_1025)">
<g clip-path="url(#clip0_1469_1025)">
<g filter="url(#filter1_d_1469_1025)">
<rect x="18" y="17" width="327" height="344" rx="24" fill="white"/>
</g>
<path d="M-80.19 -216.714C-134.005 -214.51 -185.261 -192.696 -224.8 -155.168C-264.338 -117.64 -289.582 -66.8438 -296.021 -11.8564C-302.46 43.131 -289.674 98.7269 -259.949 144.997C-230.223 191.267 -185.495 225.197 -133.756 240.723C-82.0166 256.249 -26.638 252.361 22.4845 229.752C71.6071 207.142 111.273 167.286 134.394 117.305C157.515 67.324 162.586 10.4742 148.699 -43.0859C134.812 -96.646 102.873 -143.426 58.5888 -175.068L-29.3789 -44.601C-15.2401 -34.4986 -5.04278 -19.5628 -0.609049 -2.46242C3.82466 14.638 2.20587 32.7887 -5.17618 48.7464C-12.5582 64.7042 -25.2225 77.4292 -40.9061 84.6477C-56.5897 91.8662 -74.2707 93.1078 -90.7897 88.1507C-107.309 83.1936 -121.589 72.3607 -131.08 57.5878C-140.571 42.8148 -144.653 25.0645 -142.597 7.50837C-140.541 -10.0477 -132.481 -26.2656 -119.858 -38.2473C-107.234 -50.229 -90.8694 -57.1939 -73.6875 -57.8974L-80.19 -216.714Z" fill="#E3EBFF"/>
</g>
</g>
<defs>
<filter id="filter0_d_1469_1025" x="0" y="0" width="363" height="380" filterUnits="userSpaceOnUse" color-interpolation-filters="sRGB">
<feFlood flood-opacity="0" result="BackgroundImageFix"/>
<feColorMatrix in="SourceAlpha" type="matrix" values="0 0 0 0 0 0 0 0 0 0 0 0 0 0 0 0 0 0 127 0" result="hardAlpha"/>
<feOffset dy="1"/>
<feGaussianBlur stdDeviation="9"/>
<feComposite in2="hardAlpha" operator="out"/>
<feColorMatrix type="matrix" values="0 0 0 0 0 0 0 0 0 0 0 0 0 0 0 0 0 0 0.16 0"/>
<feBlend mode="normal" in2="BackgroundImageFix" result="effect1_dropShadow_1469_1025"/>
<feBlend mode="normal" in="SourceGraphic" in2="effect1_dropShadow_1469_1025" result="shape"/>
</filter>
<filter id="filter1_d_1469_1025" x="2" y="2" width="359" height="376" filterUnits="userSpaceOnUse" color-interpolation-filters="sRGB">
<feFlood flood-opacity="0" result="BackgroundImageFix"/>
<feColorMatrix in="SourceAlpha" type="matrix" values="0 0 0 0 0 0 0 0 0 0 0 0 0 0 0 0 0 0 127 0" result="hardAlpha"/>
<feOffset dy="1"/>
<feGaussianBlur stdDeviation="8"/>
<feColorMatrix type="matrix" values="0 0 0 0 0 0 0 0 0 0 0 0 0 0 0 0 0 0 0.18 0"/>
<feBlend mode="normal" in2="BackgroundImageFix" result="effect1_dropShadow_1469_1025"/>
<feBlend mode="normal" in="SourceGraphic" in2="effect1_dropShadow_1469_1025" result="shape"/>
</filter>
<clipPath id="clip0_1469_1025">
<rect x="18" y="17" width="327" height="344" rx="24" fill="white"/>
</clipPath>
</defs>
</svg>
