<svg width="1358" height="1053" viewBox="0 0 1358 1053" fill="none" xmlns="http://www.w3.org/2000/svg">
<g filter="url(#filter0_d_140_325)">
<path d="M1335 314H150.067C141.339 314 132.926 317.261 126.478 323.143L34.411 407.136C27.1418 413.767 23 423.153 23 432.992V1030H1241.13C1244.3 1030 1247.38 1029 1249.94 1027.14L1328.81 969.95C1332.7 967.128 1335 962.613 1335 957.807V314Z" fill="#E6F2FA"/>
</g>
<path d="M1335 10C1335 4.47715 1330.52 0 1325 0H1312.08C1308.73 0 1305.75 2.10122 1304.62 5.25027C1282.56 66.8535 1195.44 66.8535 1173.38 5.25027C1172.25 2.10122 1169.27 0 1165.92 0H1147C1141.48 0 1137 4.47715 1137 10V314H1335V10Z" fill="#E6F2FA"/>
<defs>
<filter id="filter0_d_140_325" x="0" y="291" width="1358" height="762" filterUnits="userSpaceOnUse" color-interpolation-filters="sRGB">
<feFlood flood-opacity="0" result="BackgroundImageFix"/>
<feColorMatrix in="SourceAlpha" type="matrix" values="0 0 0 0 0 0 0 0 0 0 0 0 0 0 0 0 0 0 127 0" result="hardAlpha"/>
<feOffset/>
<feGaussianBlur stdDeviation="11.5"/>
<feComposite in2="hardAlpha" operator="out"/>
<feColorMatrix type="matrix" values="0 0 0 0 0 0 0 0 0 0 0 0 0 0 0 0 0 0 0.15 0"/>
<feBlend mode="normal" in2="BackgroundImageFix" result="effect1_dropShadow_140_325"/>
<feBlend mode="normal" in="SourceGraphic" in2="effect1_dropShadow_140_325" result="shape"/>
</filter>
</defs>
</svg>
