<svg width="65" height="70" viewBox="0 0 65 70" fill="none" xmlns="http://www.w3.org/2000/svg">
<path d="M0 0H65V70H0V0Z" fill="#F0DB4F"/>
<path d="M61.8478 57.4612C61.4359 55.0217 59.7632 52.9727 54.8085 51.0621C53.0874 50.3099 51.1685 49.7713 50.5968 48.5308C50.3937 47.809 50.3668 47.4023 50.4953 46.9654C50.864 45.5472 52.644 45.1051 54.0548 45.5118C54.9635 45.8014 55.8236 46.4673 56.3424 47.5296C58.7688 46.0355 58.7638 46.0453 60.4581 45.0184C59.8378 44.1039 59.5068 43.6819 59.1007 43.2906C57.6414 41.7405 55.653 40.9422 52.4729 41.0033L50.8164 41.207C49.2291 41.5884 47.7163 42.3808 46.8292 43.4431C44.1675 46.3152 44.9266 51.3419 48.1655 53.4105C51.3563 55.6881 56.0437 56.2062 56.6425 58.336C57.225 60.9433 54.6275 61.7873 52.0458 61.4874C50.1431 61.1111 49.0849 60.1915 47.9409 58.5192C45.8352 59.678 45.8352 59.678 43.6703 60.8621C44.1836 61.9295 44.7231 62.4126 45.5837 63.3374C49.6567 67.2663 59.849 67.0732 61.6771 61.1265C61.7512 60.9223 62.2435 59.5606 61.8478 57.4612ZM40.7889 41.3181H35.5297L35.5081 54.2486C35.5081 56.9986 35.6577 59.5196 35.1874 60.2923C34.418 61.8121 32.4242 61.6237 31.5155 61.329C30.5907 60.8967 30.1204 60.282 29.5756 59.4132C29.426 59.1638 29.3137 58.9707 29.276 58.9557L25 61.446C25.711 62.8338 26.7585 64.0383 28.1001 64.8209C30.1043 65.9648 32.7979 66.3155 35.615 65.7004C37.4485 65.1925 39.0304 64.1404 39.8587 62.5391C41.0561 60.4396 40.7992 57.8986 40.7884 55.0879C40.8154 50.5025 40.7889 45.918 40.7889 41.3181Z" fill="#323330"/>
</svg>
