<svg width="70" height="70" viewBox="0 0 70 70" fill="none" xmlns="http://www.w3.org/2000/svg">
<path d="M16.5156 18.2292H29.6953V19.9609H17.7188V33.0859H28.9844V34.8177H17.7188V49.2188H29.8594V50.9505H16.5156V18.2292ZM30.8984 18.2292H32.3203L38.5547 32.6302L44.8438 18.2292L53.4844 0L39.2656 34.1797L46.5938 50.9505H45.1172L38.5 35.638L31.8281 50.9505H30.4062L37.7891 34.1797L30.8984 18.2292ZM47.1406 19.9609V18.2292H62.1797V19.9609H55.2344V50.9505H54.0312V19.9609H47.1406ZM0 18.2292H1.47656L22.3672 70L13.7266 50.9505L1.25781 20.6901L1.20312 50.9505H0V18.2292ZM62.0703 48.6719C62.3438 48.6719 62.5078 48.3984 62.5078 47.9427C62.5078 47.487 62.3438 47.2135 62.0703 47.2135C61.7969 47.2135 61.6328 47.487 61.6328 47.9427C61.6328 48.3984 61.8516 48.6719 62.0703 48.6719ZM63.2734 46.7578C63.2734 47.9427 63.8203 48.763 64.5859 48.763C65.4062 48.763 65.8984 47.9427 65.8984 46.4844V41.4714H65.2422V46.4844C65.2422 47.3047 65.0234 47.6693 64.5859 47.6693C64.2031 47.6693 63.9297 47.3047 63.9297 46.6667H63.2734V46.7578ZM66.7188 46.6667C66.7734 47.9427 67.375 48.763 68.3594 48.763C69.3438 48.763 70 47.9427 70 46.5755C70 45.4818 69.6172 44.9349 68.7969 44.5703L68.3047 44.388C67.7578 44.2057 67.5391 43.8411 67.5391 43.3854C67.5391 42.7474 67.8672 42.2917 68.4141 42.2917C68.9062 42.2917 69.2344 42.6562 69.2891 43.3854H69.9453C69.8906 42.2005 69.2891 41.3802 68.4141 41.3802C67.4844 41.3802 66.8828 42.2005 66.8828 43.4766C66.8828 44.4792 67.2109 45.1172 67.9766 45.3906L68.5234 45.5729C69.0703 45.7552 69.3438 46.1198 69.3438 46.6667C69.3438 47.3047 68.9609 47.7604 68.4141 47.7604C67.8672 47.7604 67.4297 47.3047 67.375 46.6667H66.7188Z" fill="black"/>
</svg>
