<svg width="65" height="70" viewBox="0 0 65 70" fill="none" xmlns="http://www.w3.org/2000/svg">
<path d="M62.3739 15.5105L35.5583 0.687733C33.8689 -0.229244 31.6559 -0.229244 29.9532 0.687733L2.92801 15.5105C1.18518 16.4662 0 18.2626 0 20.1839V49.79C0 51.7114 1.21008 53.5083 2.95352 54.4693L10.0786 58.341C13.4968 59.9457 14.4438 59.9457 15.999 59.9457C21.0616 59.9457 23.6908 57.0286 23.6908 51.9406V22.712C23.6914 22.2992 23.9617 21.685 23.5359 21.685H20.1207C19.6881 21.685 18.8316 22.2992 18.8316 22.7114V51.9401C18.8316 54.1954 16.635 56.4398 12.6342 54.5335L5.27042 50.4737C5.01407 50.3406 4.85977 50.0725 4.85977 49.79V20.1839C4.85977 19.9049 5.14103 19.6247 5.40102 19.4817L32.3594 4.68446C32.4917 4.61745 32.6393 4.58242 32.7892 4.58242C32.939 4.58242 33.0866 4.61745 33.2189 4.68446L59.9252 19.4782C60.1809 19.6247 60.1402 19.8962 60.1402 20.1839V49.79C60.1402 50.0725 60.1961 50.3475 59.944 50.4835L33.1345 65.2895C32.9049 65.4209 32.606 65.4209 32.3539 65.2895L25.4792 61.3825C25.272 61.2679 25.0223 61.2268 24.8231 61.3327C22.9126 62.3649 22.5578 62.5021 20.7658 63.0943C20.3242 63.2408 19.6729 63.4949 21.0136 64.211L30.003 69.2787C30.8612 69.7512 31.8348 70 32.8259 70C33.8209 70.0015 34.7987 69.7527 35.6604 69.2787L62.3745 54.4693C64.1186 53.5013 65 51.7114 65 49.79V20.1839C64.9994 18.2626 64.118 16.4709 62.3739 15.5105ZM41.1422 45.0986C34.0184 45.0986 32.4499 43.2259 31.9269 39.8503C31.8649 39.4868 31.5417 39.052 31.1529 39.052H27.6721C27.2414 39.052 26.8946 39.5499 26.8946 39.9586C26.8946 44.2806 29.3609 49.5174 41.1422 49.5174C49.6699 49.5174 54.56 46.3595 54.56 40.7708C54.56 35.2295 50.6315 33.7753 42.3608 32.7322C34.0008 31.6791 33.1515 31.1471 33.1515 29.2808C33.1515 27.742 33.8708 25.6898 40.0609 25.6898C45.5913 25.6898 47.63 26.821 48.4689 30.3737C48.5412 30.7077 48.8613 30.9474 49.2228 30.9474H52.7182C52.9332 30.9474 53.1379 30.8646 53.2886 30.7182C53.435 30.5607 53.5115 30.3633 53.4927 30.1514C52.9502 24.033 48.6858 21.1819 40.0603 21.1819C32.3867 21.1819 27.81 24.2698 27.81 29.4457C27.81 35.0599 32.3642 36.6114 39.7298 37.3055C48.5412 38.1287 49.2264 39.3559 49.2264 41.0075C49.2264 43.8766 46.8099 45.0986 41.1422 45.0986Z" fill="#83CD29"/>
</svg>
