<svg width="73" height="78" viewBox="0 0 73 78" fill="none" xmlns="http://www.w3.org/2000/svg">
<g filter="url(#filter0_d_77_163)">
<path d="M4 35V70H69V0H4V35ZM56.3796 32.2C57.9364 32.5891 59.3514 33.4659 60.446 34.72C61.0486 35.3956 61.5725 36.1478 62.006 36.96C62.006 37.0496 59.198 39.0936 57.4872 40.236C57.4248 40.2808 57.1752 39.9896 56.8996 39.5472C56.5873 38.9669 56.1435 38.4812 55.6098 38.1355C55.076 37.7898 54.4696 37.5954 53.8472 37.5704C51.8764 37.4248 50.6076 38.5392 50.618 40.3704C50.6017 40.8263 50.6986 41.2787 50.8988 41.6808C51.3304 42.6496 52.1364 43.2264 54.6636 44.4024C59.3176 46.5584 61.3092 47.9808 62.5468 50.0024C63.93 52.2424 64.2368 55.86 63.3008 58.5368C62.2608 61.4488 59.7128 63.4256 56.1092 64.0808C54.4633 64.2838 52.8004 64.265 51.1588 64.0248C48.6429 63.5782 46.3253 62.2773 44.5444 60.312C43.9464 59.6008 42.7816 57.7472 42.8544 57.6128C43.0442 57.461 43.2441 57.3244 43.4524 57.204L45.86 55.7704L47.7268 54.6056L48.1168 55.2272C48.775 56.2411 49.6126 57.1051 50.5816 57.7696C52.6616 58.9456 55.5008 58.7832 56.9048 57.4224C57.3762 56.9237 57.6703 56.2629 57.7358 55.5548C57.8014 54.8467 57.6343 54.1363 57.2636 53.5472C56.7436 52.7688 55.7036 52.1136 52.7968 50.7472C49.4428 49.1904 47.9972 48.2272 46.6764 46.6928C45.8519 45.6803 45.2431 44.4856 44.8928 43.1928C44.6315 41.7158 44.5929 40.2031 44.7784 38.7128C45.47 35.224 47.8984 32.788 51.4448 32.0656C53.0872 31.8468 54.7508 31.8958 56.3796 32.2112V32.2ZM41.1228 35.1344V38.0016H32.6832V63.8904H26.698V37.996H18.2376V35.196C18.2112 34.2304 18.2321 33.264 18.3 32.3008C18.3416 32.2504 23.5 32.2504 29.74 32.2504H41.0916L41.1228 35.1344Z" fill="#007ACC"/>
</g>
<defs>
<filter id="filter0_d_77_163" x="0" y="0" width="73" height="78" filterUnits="userSpaceOnUse" color-interpolation-filters="sRGB">
<feFlood flood-opacity="0" result="BackgroundImageFix"/>
<feColorMatrix in="SourceAlpha" type="matrix" values="0 0 0 0 0 0 0 0 0 0 0 0 0 0 0 0 0 0 127 0" result="hardAlpha"/>
<feOffset dy="4"/>
<feGaussianBlur stdDeviation="2"/>
<feComposite in2="hardAlpha" operator="out"/>
<feColorMatrix type="matrix" values="0 0 0 0 0 0 0 0 0 0 0 0 0 0 0 0 0 0 0.25 0"/>
<feBlend mode="normal" in2="BackgroundImageFix" result="effect1_dropShadow_77_163"/>
<feBlend mode="normal" in="SourceGraphic" in2="effect1_dropShadow_77_163" result="shape"/>
</filter>
</defs>
</svg>
