<svg width="70" height="70" viewBox="0 0 70 70" fill="none" xmlns="http://www.w3.org/2000/svg">
<path d="M35 42.1377C38.5202 42.1377 41.3738 38.9421 41.3738 35C41.3738 31.0579 38.5202 27.8623 35 27.8623C31.4798 27.8623 28.6262 31.0579 28.6262 35C28.6262 38.9421 31.4798 42.1377 35 42.1377Z" fill="#61DAFB"/>
<path d="M59.2093 23.229C57.9792 22.7281 56.6933 22.2272 55.3514 21.7889C55.6869 20.2862 55.9665 18.7835 56.1901 17.3435C57.3642 9.07871 56.0783 3.25581 52.5 1.00179C51.4377 0.313059 50.2636 0 48.9217 0C45.008 0 40.0319 3.25581 35 8.70304C29.9681 3.25581 24.992 0 21.0783 0C19.7364 0 18.5623 0.313059 17.5 1.00179C13.9217 3.31843 12.6358 9.14132 13.8099 17.3435C14.0335 18.7835 14.3131 20.2862 14.6486 21.7889C13.3067 22.2272 12.0208 22.6655 10.7907 23.229C3.80192 26.2343 0 30.3667 0 35C0 39.6333 3.85783 43.7657 10.7907 46.771C12.0208 47.2719 13.3067 47.7728 14.6486 48.2111C14.3131 49.7138 14.0335 51.2165 13.8099 52.6565C12.6358 60.9213 13.9217 66.7442 17.5 68.9982C18.5623 69.6869 19.7364 70 21.0783 70C25.0479 70 30.024 66.7442 35 61.297C40.0319 66.7442 45.008 70 48.9217 70C50.2636 70 51.4377 69.6869 52.5 68.9982C56.0783 66.6816 57.3642 60.8587 56.1901 52.6565C55.9665 51.2165 55.6869 49.7138 55.3514 48.2111C56.6933 47.7728 57.9792 47.3345 59.2093 46.771C66.1981 43.7657 70 39.6333 70 35C70 30.3667 66.1981 26.2343 59.2093 23.229ZM50.9345 4.13238C53.2268 5.63506 54.0096 10.2683 53.0591 16.8426C52.8914 18.1574 52.6118 19.5349 52.2764 20.975C49.369 20.2236 46.2939 19.7227 43.0511 19.4097C41.1502 16.4043 39.1933 13.712 37.2364 11.2701C41.3738 6.69946 45.5671 3.56887 48.9776 3.56887C49.7045 3.56887 50.3754 3.75671 50.9345 4.13238ZM44.6725 41.2612C43.6661 43.2648 42.492 45.2683 41.262 47.2719C39.1933 47.4598 37.1246 47.5224 35 47.5224C32.8195 47.5224 30.7508 47.4598 28.738 47.2719C27.508 45.2683 26.3898 43.2648 25.3834 41.2612C24.3211 39.195 23.3147 37.0662 22.4201 35C23.3147 32.9338 24.3211 30.805 25.3834 28.7388C26.3898 26.7352 27.5639 24.7317 28.7939 22.7281C30.8626 22.5403 32.9313 22.4776 35.0559 22.4776C37.2364 22.4776 39.3051 22.5403 41.3179 22.7281C42.5479 24.7317 43.6661 26.7352 44.6725 28.7388C45.7348 30.805 46.7412 32.9338 47.6358 35C46.6853 37.0662 45.7348 39.1324 44.6725 41.2612ZM49.3131 39.195C50.1518 41.3864 50.8227 43.5152 51.4377 45.644C49.5367 46.1449 47.524 46.5206 45.3994 46.8336C46.0703 45.644 46.7971 44.3918 47.4121 43.0769C48.0831 41.7621 48.6981 40.4472 49.3131 39.195ZM35 56.1628C33.6581 54.5349 32.3722 52.7818 31.1422 50.966C32.4281 51.0286 33.7141 51.0912 35 51.0912C36.2859 51.0912 37.5719 51.0286 38.8578 50.966C37.6278 52.7818 36.3419 54.5349 35 56.1628ZM24.6006 46.771C22.476 46.458 20.4633 46.0823 18.5623 45.5814C19.1773 43.5152 19.8482 41.3238 20.6869 39.1324C21.3019 40.3846 21.9169 41.6995 22.5879 42.9517C23.2588 44.3292 23.9297 45.5188 24.6006 46.771ZM20.6869 30.805C19.8482 28.6136 19.1773 26.4848 18.5623 24.356C20.4633 23.8551 22.476 23.4794 24.6006 23.1664C23.9297 24.356 23.2029 25.6082 22.5879 26.9231C21.9169 28.2379 21.3019 29.5528 20.6869 30.805ZM35 13.8372C36.3419 15.4651 37.6278 17.2182 38.8578 19.034C37.5719 18.9714 36.2859 18.9088 35 18.9088C33.7141 18.9088 32.4281 18.9714 31.1422 19.034C32.3722 17.2182 33.6581 15.4651 35 13.8372ZM47.4121 26.9857L45.3994 23.229C47.524 23.542 49.5367 23.9177 51.4377 24.4186C50.8227 26.4848 50.1518 28.6762 49.3131 30.8676C48.6981 29.5528 48.0831 28.2379 47.4121 26.9857ZM16.9409 16.8426C15.9904 10.2683 16.7732 5.63506 19.0655 4.13238C19.6246 3.75671 20.2955 3.56887 21.0224 3.56887C24.377 3.56887 28.5703 6.63685 32.7636 11.2701C30.8067 13.6494 28.8498 16.4043 26.9489 19.4097C23.7061 19.7227 20.631 20.2862 17.7236 20.975C17.3882 19.5349 17.1645 18.1574 16.9409 16.8426ZM3.13099 35C3.13099 32.0572 6.31789 28.9267 11.9089 26.61C13.0272 26.1091 14.2572 25.6708 15.4872 25.2952C16.3818 28.4258 17.5 31.7442 18.8419 35.0626C17.5 38.381 16.3259 41.6369 15.4872 44.7674C7.77157 42.263 3.13099 38.5063 3.13099 35ZM19.0655 65.8676C16.7732 64.3649 15.9904 59.7317 16.9409 53.1574C17.1086 51.8426 17.3882 50.4651 17.7236 49.025C20.631 49.7764 23.7061 50.2773 26.9489 50.5903C28.8498 53.5957 30.8067 56.288 32.7636 58.7299C28.6262 63.3005 24.4329 66.4311 21.0224 66.4311C20.2955 66.4311 19.6246 66.2433 19.0655 65.8676ZM53.0591 53.1574C54.0096 59.7317 53.2268 64.3649 50.9345 65.8676C50.3754 66.2433 49.7045 66.4311 48.9776 66.4311C45.623 66.4311 41.4297 63.3632 37.2364 58.7299C39.1933 56.3506 41.1502 53.5957 43.0511 50.5903C46.2939 50.2773 49.369 49.7138 52.2764 49.025C52.6118 50.4651 52.8355 51.8426 53.0591 53.1574ZM58.0911 43.39C56.9728 43.8909 55.7428 44.3292 54.5128 44.7048C53.6182 41.5742 52.5 38.2558 51.1581 34.9374C52.5 31.619 53.6741 28.3631 54.5128 25.2326C62.2284 27.737 66.869 31.4937 66.869 35C66.869 37.9428 63.6262 41.0733 58.0911 43.39Z" fill="#61DAFB"/>
</svg>
