<svg width="32" height="30" viewBox="0 0 32 30" fill="none" xmlns="http://www.w3.org/2000/svg">
<path d="M0.5 8C0.5 3.85787 3.85786 0.5 8 0.5H23.7539C24.1148 0.5 24.4636 0.63011 24.7363 0.866467L30.9824 6.27972C31.3111 6.56464 31.5 6.97823 31.5 7.41326V22C31.5 26.1421 28.1421 29.5 24 29.5H7.23262C6.87783 29.5 6.53454 29.3742 6.2637 29.1451L1.03109 24.7175C0.694261 24.4325 0.5 24.0136 0.5 23.5724V8Z" stroke="black"/>
<path d="M14 21L19.1515 15.8485C19.6201 15.3799 19.6201 14.6201 19.1515 14.1515L14 9" stroke="black" stroke-width="1.5" stroke-linecap="round"/>
</svg>
