<svg width="25" height="25" viewBox="0 0 25 25" fill="none" xmlns="http://www.w3.org/2000/svg">
<g id="Group 36">
<path id="Rectangle 82" d="M24.5 6C24.5 2.96243 22.0376 0.5 19 0.5H6.64219C6.26473 0.5 5.90113 0.642313 5.62396 0.898545L0.981766 5.19C0.674635 5.47392 0.5 5.87319 0.5 6.29145V19C0.5 22.0376 2.96243 24.5 6 24.5H19.1528C19.5241 24.5 19.8822 24.3623 20.1578 24.1135L24.005 20.6412C24.3201 20.3567 24.5 19.9521 24.5 19.5276V6Z" stroke="black"/>
<path id="Vector 142" d="M8 13L11.8344 10.4438C12.2374 10.175 12.7626 10.175 13.1656 10.4438L17 13" stroke="black" stroke-linecap="round"/>
</g>
</svg>
