<svg width="126" height="126" viewBox="0 0 126 126" fill="none" xmlns="http://www.w3.org/2000/svg">
<path d="M126 2.3C126 0.2 126 0 124 0H2.5C0.5 0 0 0.2 0 2.2V123.7C0 125.7 0.3 125.7 2.2 125.7H124C125.6 125.7 126 125.3 126 123.7C125.9 103.5 126 83.2 126 63V2.3ZM57.7 93L48 71.2L37.8 93H26.6L41.1 63.7L27.6 32.7L39.1 32.8L47.6 53.1L58 32.7H68.8L54.2 62.1L68.7 93H57.7ZM101.3 33.8V90.4C101.3 91.9 101.1 92.8 99.6 92.9C92.6 93.8 85.6 94.8 78.7 92.8C71.2 90.7 66.9 84.8 66.6 76.7C66.2 66.7 70 59.8 77.4 56.6C82 54.6 86.7 54.5 92 55V32.8H101.3V33.8ZM81.8 85.2C85.1 86.1 88.4 85.8 91.8 85.2V65.2C91.8 64.9 91.4 64.3 91.1 64.2C87.4 63.6 83.6 63.6 80.1 65.5C76.5 67.5 74.6 71.7 75 76.6C75.3 81.1 77.7 84 81.8 85.2Z" fill="#DD80BC"/>
</svg>
