<svg width="250" height="75" viewBox="0 0 250 75" fill="none" xmlns="http://www.w3.org/2000/svg">
<g clip-path="url(#clip0_2079_2894)">
<path d="M241.111 74.0933H8.7037C3.88889 74.0933 0 70.2034 0 65.3873V8.70596C0 3.8899 3.88889 0 8.7037 0H241.111C245.926 0 250 3.8899 250 8.70596V65.2021C250 70.2034 245.926 74.0933 241.111 74.0933Z" fill="#A6A6A6"/>
<path d="M248.149 65.5723C248.149 69.4622 245.001 72.6111 241.112 72.6111H8.70452C4.81563 72.6111 1.66748 69.4622 1.66748 65.5723V8.89091C1.66748 5.00101 4.81563 1.85205 8.70452 1.85205H241.112C245.001 1.85205 248.149 5.00101 248.149 8.89091V65.5723Z" fill="black"/>
<path d="M66.2961 28.1552C65.5554 27.5995 64.0739 26.8586 61.1109 26.1177C60.185 25.9324 59.2591 25.7472 58.148 25.562C56.6665 25.3767 55.185 25.1915 53.148 25.0063H52.9628C52.5924 24.0801 52.2221 23.1539 51.8517 22.2278C51.6665 21.6721 51.4813 21.1164 51.1109 20.5607V20.3754C50.3702 18.3379 49.4443 16.3003 47.9628 14.448C46.1109 12.2252 43.8887 11.1138 41.6665 11.1138C39.4443 11.1138 37.2221 12.2252 35.5554 14.2627C33.8887 16.1151 33.148 18.3379 32.2221 20.3754V20.5607C32.0369 21.1164 31.6665 21.6721 31.4813 22.2278C31.1109 23.1539 30.7406 24.0801 30.3702 25.0063H30.185C28.3332 25.1915 26.6665 25.3767 25.185 25.562C24.0739 25.7472 22.9628 25.9324 22.2221 26.1177C19.2591 26.8586 17.7776 27.5995 17.0369 28.1552C16.8517 28.3405 16.6665 28.7109 16.6665 29.0814L16.8517 30.9337C17.2221 33.7122 17.5924 36.8612 18.3332 40.1954C18.8887 42.7886 19.4443 45.3819 20.3702 47.7899C20.7406 48.7161 21.1109 49.6423 21.4813 50.5684C24.4443 56.4959 29.8147 60.9415 36.4813 62.4234C38.148 62.7938 39.8147 62.9791 41.6665 62.9791C43.3332 62.9791 45.185 62.7938 46.8517 62.4234C53.5184 60.9415 59.0739 56.3107 62.0369 50.198C62.4072 49.457 62.7776 48.7161 62.9628 47.9752C64.9998 42.4182 65.7406 36.4907 66.4813 31.6747L66.6665 29.0814C66.6665 28.7109 66.4813 28.3405 66.2961 28.1552ZM41.6665 24.4506C39.2591 24.4506 37.2221 24.4506 35.3702 24.6358C35.5554 24.4506 35.5554 24.0801 35.7406 23.8949C35.9258 23.3392 36.2961 22.7835 36.4813 22.2278C37.0369 20.9311 37.5924 19.6345 38.148 18.5231C38.5184 17.9674 38.7035 17.5969 39.0739 17.0412C39.6295 16.4855 40.5554 15.5594 41.8517 15.5594C43.148 15.5594 44.0739 16.4855 44.6295 17.0412C44.9998 17.4117 45.3702 17.9674 45.5554 18.5231C46.1109 19.6345 46.6665 20.9311 47.2221 22.2278C47.4072 22.7835 47.5924 23.3392 47.9628 23.8949C48.148 24.0801 48.148 24.4506 48.3332 24.6358C46.1109 24.6358 44.0739 24.4506 41.6665 24.4506Z" fill="url(#paint0_linear_2079_2894)"/>
<path d="M160.001 42.6024C160.001 43.5286 159.63 44.0843 159.075 44.64C158.519 45.1957 157.593 45.3809 156.297 45.3809H155L155.371 47.4185H157.038C157.778 47.4185 158.519 47.2333 159.075 47.048C159.63 46.8628 160.186 46.3071 160.556 45.9366C160.926 45.3809 161.297 44.8252 161.482 44.2695C161.667 43.5286 161.852 42.9729 161.852 42.232V36.4897H159.815V42.6024H160.001Z" fill="white"/>
<path d="M161.111 31.1172C160.741 31.1172 160.371 31.3024 160 31.4877C159.63 31.8581 159.63 32.0434 159.63 32.5991C159.63 32.9695 159.815 33.34 160 33.7105C160.371 34.0809 160.741 34.0809 161.111 34.0809C161.482 34.0809 161.852 33.8957 162.222 33.7105C162.593 33.34 162.593 32.9695 162.593 32.5991C162.593 32.2286 162.408 31.8581 162.222 31.4877C161.852 31.3024 161.482 31.1172 161.111 31.1172Z" fill="white"/>
<path d="M167.037 29.8218H165.186V42.4176H167.037V29.8218Z" fill="white"/>
<path d="M180 34.6367C180.37 34.6367 180.555 34.4515 180.926 34.2663C181.111 34.081 181.296 33.7106 181.296 33.3401C181.296 32.9696 181.111 32.5992 180.926 32.4139C180.741 32.2287 180.37 32.0435 180 32.0435C179.63 32.0435 179.259 32.2287 179.074 32.4139C178.889 32.5992 178.704 32.9696 178.704 33.3401C178.704 33.7106 178.889 33.8958 179.074 34.2663C179.259 34.4515 179.63 34.6367 180 34.6367Z" fill="white"/>
<path d="M183.519 34.6367C183.889 34.6367 184.26 34.4515 184.445 34.2663C184.63 34.081 184.815 33.7106 184.815 33.3401C184.815 32.9696 184.63 32.5992 184.445 32.4139C184.26 32.2287 183.889 32.0435 183.519 32.0435C183.149 32.0435 182.778 32.2287 182.593 32.4139C182.408 32.5992 182.223 32.9696 182.223 33.3401C182.223 33.7106 182.408 33.8958 182.593 34.2663C182.778 34.4515 183.149 34.6367 183.519 34.6367Z" fill="white"/>
<path d="M196.852 31.8592C197.222 31.8592 197.593 31.674 197.963 31.4888C198.334 31.1183 198.334 30.7478 198.334 30.3774C198.334 30.0069 198.148 29.6364 197.963 29.266C197.593 28.8955 197.408 28.8955 196.852 28.8955C196.482 28.8955 196.111 29.0807 195.741 29.266C195.371 29.6364 195.371 29.8217 195.371 30.3774C195.371 30.7478 195.556 31.1183 195.741 31.4888C196.111 31.674 196.482 31.8592 196.852 31.8592Z" fill="white"/>
<path d="M199.816 34.0818C199.445 33.7113 199.075 33.3409 198.704 33.1556C198.334 32.9704 197.779 32.7852 197.223 32.7852C196.667 32.7852 196.297 32.7852 195.927 32.9704C195.556 33.1556 195.186 33.3409 194.816 33.7113C194.445 34.0818 194.26 34.267 194.075 34.8227C193.89 35.1932 193.89 35.5637 193.89 36.1194C193.89 37.0455 194.075 37.6012 194.445 38.1569C194.816 38.7126 195.556 39.0831 196.297 39.0831H198.89C198.89 39.4535 198.89 39.6388 198.704 40.0092C198.519 40.1945 198.149 40.3797 197.593 40.3797H192.223H192.038C191.667 40.3797 191.297 40.1945 190.927 40.0092C190.556 39.824 190.371 39.4535 190.371 38.8978V36.1194H188.334V38.8978C188.334 39.4535 188.334 39.824 188.149 40.0092C187.964 40.1945 187.593 40.3797 187.038 40.3797H177.593C177.038 40.3797 176.667 40.1945 176.482 40.0092C176.112 39.824 175.927 39.4535 175.927 38.8978V36.3046H173.89V39.2683C173.89 40.1945 174.075 41.1206 174.63 41.6763C175.186 42.232 175.742 42.4173 176.667 42.4173H187.038C187.779 42.4173 188.334 42.232 188.89 41.6763C189.26 42.0468 189.63 42.232 190.186 42.232C190.556 42.4173 191.112 42.4173 191.667 42.4173H191.853H197.593C198.149 42.4173 198.519 42.232 198.89 42.0468C199.26 41.8616 199.63 41.4911 199.816 41.1206C200.001 40.7502 200.186 40.3797 200.371 39.824C200.556 39.2683 200.556 38.8978 200.556 38.3421V37.0455C200.556 36.4898 200.556 35.9341 200.371 35.5637C200.186 35.008 200.001 34.4523 199.816 34.0818ZM196.667 37.0455C196.482 37.0455 196.112 37.0455 195.741 36.8603C195.371 36.675 195.371 36.4898 195.371 36.1194C195.371 35.7489 195.556 35.3784 195.741 35.1932C195.927 35.008 196.297 34.8227 196.853 34.8227C197.223 34.8227 197.408 34.8227 197.593 35.008C197.779 35.1932 197.964 35.3784 198.149 35.5637C198.334 35.7489 198.519 36.1194 198.519 36.3046C198.704 36.6751 198.704 36.8603 198.704 37.2307L196.667 37.0455Z" fill="white"/>
<path d="M207.778 44.6406C207.407 44.6406 207.037 44.8259 206.852 45.0111C206.667 45.1963 206.481 45.5668 206.481 45.9373C206.481 46.3077 206.667 46.6782 206.852 46.8634C207.037 47.0487 207.407 47.2339 207.778 47.2339C208.148 47.2339 208.518 47.0487 208.704 46.8634C208.889 46.6782 209.074 46.3077 209.074 45.9373C209.074 45.5668 208.889 45.3816 208.704 45.0111C208.518 44.6406 208.148 44.6406 207.778 44.6406Z" fill="white"/>
<path d="M211.667 38.8982C211.667 39.0834 211.667 39.2687 211.667 39.4539C211.667 39.6391 211.667 39.8244 211.481 40.0096C211.296 40.1948 211.296 40.1948 211.111 40.3801C210.926 40.3801 210.741 40.5653 210.37 40.5653H207.778H207.222C206.667 40.5653 206.481 40.3801 206.111 40.1948C205.926 40.0096 205.741 39.6391 205.741 38.8982V29.8218H203.704V39.2687C203.704 40.3801 204.074 41.3062 204.63 41.6767C205.185 42.2324 205.926 42.4176 207.037 42.4176H207.778H210.926C211.852 42.4176 212.592 42.0472 213.148 41.4915C213.704 40.9358 213.889 40.1948 213.889 39.2687V36.3049H211.852V38.8982H211.667Z" fill="white"/>
<path d="M211.111 44.6406C210.74 44.6406 210.37 44.8259 210.185 45.0111C210 45.1963 209.814 45.5668 209.814 45.9373C209.814 46.3077 210 46.6782 210.185 46.8634C210.37 47.0487 210.74 47.2339 211.111 47.2339C211.481 47.2339 211.666 47.0487 212.037 46.8634C212.222 46.6782 212.407 46.3077 212.407 45.9373C212.407 45.5668 212.222 45.3816 212.037 45.0111C211.851 44.6406 211.481 44.6406 211.111 44.6406Z" fill="white"/>
<path d="M218.148 42.6024C218.148 43.5286 217.778 44.0843 217.223 44.64C216.667 45.1957 215.741 45.3809 214.445 45.3809H213.889L214.26 47.4185H215.185C215.926 47.4185 216.667 47.2333 217.223 47.048C217.778 46.8628 218.334 46.4923 218.704 45.9366C219.074 45.3809 219.445 44.8252 219.63 44.2695C219.815 43.5286 220 42.9729 220 42.232V36.4897H217.963V42.6024H218.148Z" fill="white"/>
<path d="M231.851 38.712C231.666 38.3415 231.481 37.971 231.111 37.6006L226.666 32.9697L225.37 34.2664L229.814 38.8972C230 39.0824 230.185 39.4529 230.185 39.6381C230.185 39.8234 230.185 40.0086 230 40.1938C229.814 40.3791 229.629 40.3791 229.259 40.3791H222.777L222.963 42.4166H229.074C230 42.4166 230.74 42.2314 231.296 41.6757C231.851 41.12 232.037 40.5643 232.037 39.8234C232.037 39.4529 232.037 39.0824 231.851 38.712Z" fill="white"/>
<path d="M104.815 43.7163C102.592 43.7163 100.926 42.0492 100.926 39.8264V20.1917C100.926 17.9689 102.592 16.3018 104.815 16.3018C107.037 16.3018 108.704 17.9689 108.704 20.1917V39.6411C108.704 41.8639 107.037 43.7163 104.815 43.7163Z" fill="white"/>
<path d="M91.297 47.6074H81.4822C79.2599 47.6074 77.5933 45.9403 77.5933 43.7176C77.5933 41.4948 79.2599 39.8277 81.4822 39.8277H89.2599V28.158C89.2599 25.9352 90.9266 24.2681 93.1488 24.2681C95.371 24.2681 97.0377 25.9352 97.0377 28.158V41.8652C97.0377 45.0142 94.4451 47.6074 91.297 47.6074Z" fill="white"/>
<path d="M114.63 55.3858H105.001C102.778 55.3858 101.112 53.7187 101.112 51.4959C101.112 49.2731 102.778 47.606 105.001 47.606H112.778V35.9363C112.778 33.7135 114.445 32.0464 116.667 32.0464C118.89 32.0464 120.556 33.7135 120.556 35.9363V49.6435C120.371 52.7925 117.778 55.3858 114.63 55.3858Z" fill="white"/>
<path d="M139.816 47.6048H130.186C126.853 47.6048 124.26 45.0115 124.26 41.6773V24.2654C124.26 22.0426 125.927 20.3755 128.149 20.3755C130.371 20.3755 132.038 22.0426 132.038 24.2654V39.825H139.816C142.038 39.825 143.705 41.4921 143.705 43.7149C143.705 45.7524 142.038 47.6048 139.816 47.6048Z" fill="white"/>
<path d="M116.483 28.1553C118.63 28.1553 120.372 26.4137 120.372 24.2654C120.372 22.1171 118.63 20.3755 116.483 20.3755C114.335 20.3755 112.594 22.1171 112.594 24.2654C112.594 26.4137 114.335 28.1553 116.483 28.1553Z" fill="white"/>
<path d="M128.149 59.2759C130.297 59.2759 132.038 57.5343 132.038 55.386C132.038 53.2377 130.297 51.4961 128.149 51.4961C126.001 51.4961 124.26 53.2377 124.26 55.386C124.26 57.5343 126.001 59.2759 128.149 59.2759Z" fill="white"/>
</g>
<defs>
<linearGradient id="paint0_linear_2079_2894" x1="41.6665" y1="11.1138" x2="41.6665" y2="62.9791" gradientUnits="userSpaceOnUse">
<stop stop-color="#009955"/>
<stop offset="0.0001" stop-color="#95D601"/>
<stop offset="1" stop-color="#009856"/>
</linearGradient>
<clipPath id="clip0_2079_2894">
<rect width="250" height="74.0933" fill="white"/>
</clipPath>
</defs>
</svg>
