<svg width="250" height="73" viewBox="0 0 250 73" fill="none" xmlns="http://www.w3.org/2000/svg">
<path d="M240.741 72.3218H9.25926C4.16898 72.3218 0 68.2514 0 63.2816V9.04035C0 4.0705 4.16898 0.000150383 9.25926 0.000150383H240.741C245.831 0.000150383 250 4.0705 250 9.04035V63.2816C250 68.2514 245.831 72.3218 240.741 72.3218Z" fill="black"/>
<path d="M240.741 1.44884C245.028 1.44884 248.516 4.85474 248.516 9.04035V63.2816C248.516 67.4672 245.028 70.8731 240.741 70.8731H9.25926C4.97222 70.8731 1.4838 67.4672 1.4838 63.2816V9.04035C1.4838 4.85474 4.97222 1.44884 9.25926 1.44884H240.741ZM240.741 0.000150383H9.25926C4.16898 0.000150383 0 4.0705 0 9.04035V63.2816C0 68.2514 4.16898 72.3218 9.25926 72.3218H240.741C245.831 72.3218 250 68.2514 250 63.2816V9.04035C250 4.0705 245.831 0.000150383 240.741 0.000150383Z" fill="#A6A6A6"/>
<path d="M87.8106 18.5215C87.8106 20.0312 87.3476 21.2404 86.4356 22.1421C85.387 23.2111 84.0212 23.749 82.3476 23.749C80.7481 23.749 79.3823 23.2021 78.262 22.124C77.1393 21.0302 76.5791 19.6877 76.5791 18.0808C76.5791 16.4739 77.1393 15.1314 78.262 14.0466C79.3823 12.9595 80.7481 12.4126 82.3476 12.4126C83.1439 12.4126 83.9032 12.5731 84.6277 12.8714C85.3499 13.172 85.9379 13.5788 86.3638 14.0805L85.3962 15.0343C84.6532 14.1777 83.6416 13.7551 82.3476 13.7551C81.181 13.7551 80.1694 14.1528 79.3106 14.9552C78.461 15.7597 78.0351 16.8016 78.0351 18.0808C78.0351 19.36 78.461 20.4109 79.3106 21.2155C80.1694 22.0088 81.181 22.4156 82.3476 22.4156C83.586 22.4156 84.6277 22.0088 85.4495 21.2065C85.9911 20.6753 86.299 19.9431 86.38 19.0074H82.3476V17.7011H87.7272C87.7921 17.9836 87.8106 18.2571 87.8106 18.5215Z" fill="white" stroke="white" stroke-width="0.196126" stroke-miterlimit="10"/>
<path d="M96.3446 13.9923H91.2914V17.4276H95.847V18.7339H91.2914V22.1692H96.3446V23.5003H89.8608V12.6611H96.3446V13.9923Z" fill="white" stroke="white" stroke-width="0.196126" stroke-miterlimit="10"/>
<path d="M102.368 23.5003H100.938V13.9923H97.8384V12.6611H105.47V13.9923H102.368V23.5003Z" fill="white" stroke="white" stroke-width="0.196126" stroke-miterlimit="10"/>
<path d="M110.994 23.5003V12.6611H112.422V23.5003H110.994Z" fill="white" stroke="white" stroke-width="0.196126" stroke-miterlimit="10"/>
<path d="M118.753 23.5003H117.334V13.9923H114.223V12.6611H121.864V13.9923H118.753V23.5003Z" fill="white" stroke="white" stroke-width="0.196126" stroke-miterlimit="10"/>
<path d="M136.312 22.106C135.217 23.2021 133.861 23.749 132.243 23.749C130.615 23.749 129.259 23.2021 128.164 22.106C127.071 21.0121 126.527 19.6696 126.527 18.0808C126.527 16.492 127.071 15.1495 128.164 14.0557C129.259 12.9595 130.615 12.4126 132.243 12.4126C133.851 12.4126 135.208 12.9595 136.303 14.0647C137.405 15.1676 137.949 16.501 137.949 18.0808C137.949 19.6696 137.405 21.0121 136.312 22.106ZM129.222 21.1974C130.046 22.0088 131.048 22.4156 132.243 22.4156C133.428 22.4156 134.439 22.0088 135.254 21.1974C136.076 20.3861 136.493 19.3442 136.493 18.0808C136.493 16.8174 136.076 15.7756 135.254 14.9642C134.439 14.1528 133.428 13.746 132.243 13.746C131.048 13.746 130.046 14.1528 129.222 14.9642C128.4 15.7756 127.983 16.8174 127.983 18.0808C127.983 19.3442 128.4 20.3861 129.222 21.1974Z" fill="white" stroke="white" stroke-width="0.196126" stroke-miterlimit="10"/>
<path d="M139.956 23.5003V12.6611H141.692L147.09 21.0911H147.153L147.09 19.0074V12.6611H148.519V23.5003H147.028L141.375 14.6545H141.313L141.375 16.7473V23.5003H139.956Z" fill="white" stroke="white" stroke-width="0.196126" stroke-miterlimit="10"/>
<path d="M126.176 39.3292C121.826 39.3292 118.273 42.5611 118.273 47.0201C118.273 51.4431 121.826 54.7088 126.176 54.7088C130.535 54.7088 134.088 51.4431 134.088 47.0201C134.088 42.5611 130.535 39.3292 126.176 39.3292ZM126.176 51.6804C123.789 51.6804 121.736 49.7571 121.736 47.0201C121.736 44.2471 123.789 42.3577 126.176 42.3577C128.562 42.3577 130.625 44.2471 130.625 47.0201C130.625 49.7571 128.562 51.6804 126.176 51.6804ZM108.933 39.3292C104.574 39.3292 101.03 42.5611 101.03 47.0201C101.03 51.4431 104.574 54.7088 108.933 54.7088C113.289 54.7088 116.836 51.4431 116.836 47.0201C116.836 42.5611 113.289 39.3292 108.933 39.3292ZM108.933 51.6804C106.544 51.6804 104.484 49.7571 104.484 47.0201C104.484 44.2471 106.544 42.3577 108.933 42.3577C111.319 42.3577 113.373 44.2471 113.373 47.0201C113.373 49.7571 111.319 51.6804 108.933 51.6804ZM88.4143 41.6864V44.9545H96.4074C96.1736 46.7806 95.5486 48.123 94.5903 49.0587C93.4236 50.1887 91.6065 51.4431 88.4143 51.4431C83.4954 51.4431 79.6435 47.5671 79.6435 42.7645C79.6435 37.9619 83.4954 34.0859 88.4143 34.0859C91.0741 34.0859 93.0093 35.1006 94.4375 36.416L96.7963 34.113C94.7986 32.2507 92.1412 30.8201 88.4143 30.8201C81.669 30.8201 76 36.1787 76 42.7645C76 49.3503 81.669 54.7088 88.4143 54.7088C92.0602 54.7088 94.7986 53.5426 96.9514 51.3549C99.1574 49.2011 99.8449 46.1726 99.8449 43.7272C99.8449 42.9679 99.7801 42.2695 99.6643 41.6864H88.4143ZM172.317 44.2199C171.667 42.5 169.66 39.3292 165.572 39.3292C161.521 39.3292 158.148 42.4458 158.148 47.0201C158.148 51.3278 161.486 54.7088 165.961 54.7088C169.579 54.7088 171.667 52.555 172.525 51.3007L169.84 49.5537C168.944 50.8328 167.725 51.6804 165.961 51.6804C164.208 51.6804 162.951 50.8961 162.146 49.3502L172.681 45.0946L172.317 44.2199ZM161.576 46.7806C161.486 43.8154 163.935 42.2966 165.69 42.2966C167.065 42.2966 168.231 42.9679 168.62 43.9284L161.576 46.7806ZM153.014 54.241H156.477V31.6405H153.014V54.241ZM147.343 41.0423H147.227C146.449 40.1428 144.965 39.3292 143.086 39.3292C139.141 39.3292 135.535 42.7102 135.535 47.045C135.535 51.3549 139.141 54.7088 143.086 54.7088C144.965 54.7088 146.449 53.8884 147.227 52.9618H147.343V54.0647C147.343 57.005 145.734 58.5848 143.139 58.5848C141.023 58.5848 139.711 57.0932 139.169 55.8389L136.157 57.0661C137.025 59.1046 139.324 61.6133 143.139 61.6133C147.199 61.6133 150.625 59.2809 150.625 53.6059V39.797H147.343V41.0423ZM143.382 51.6804C140.995 51.6804 138.998 49.7299 138.998 47.045C138.998 44.3352 140.995 42.3577 143.382 42.3577C145.734 42.3577 147.588 44.3352 147.588 47.045C147.588 49.7299 145.734 51.6804 143.382 51.6804ZM188.53 31.6405H180.248V54.241H183.701V45.6777H188.53C192.366 45.6777 196.127 42.9679 196.127 38.6579C196.127 34.3503 192.356 31.6405 188.53 31.6405ZM188.62 42.5339H183.701V34.7842H188.62C191.199 34.7842 192.671 36.8748 192.671 38.6579C192.671 40.4072 191.199 42.5339 188.62 42.5339ZM209.97 39.2862C207.474 39.2862 204.88 40.362 203.812 42.7464L206.877 44.0007C207.537 42.7464 208.75 42.3396 210.032 42.3396C211.824 42.3396 213.641 43.3905 213.669 45.246V45.4833C213.044 45.1307 211.706 44.6087 210.06 44.6087C206.759 44.6087 203.396 46.3828 203.396 49.6938C203.396 52.7222 206.099 54.6727 209.139 54.6727C211.463 54.6727 212.745 53.6489 213.551 52.4578H213.669V54.2048H217.005V45.5353C217.005 41.5282 213.94 39.2862 209.97 39.2862ZM209.553 51.6713C208.424 51.6713 206.849 51.1244 206.849 49.7571C206.849 48.0078 208.812 47.3365 210.512 47.3365C212.032 47.3365 212.745 47.6643 213.669 48.0959C213.398 50.1887 211.553 51.6713 209.553 51.6713ZM229.157 39.7812L225.187 49.5785H225.069L220.965 39.7812H217.241L223.407 53.4726L219.889 61.0912H223.498L233 39.7812H229.157ZM198.025 54.241H201.488V31.6405H198.025V54.241Z" fill="white"/>
<path d="M19.3241 13.6308C18.7801 14.1867 18.4653 15.0523 18.4653 16.1733V56.1582C18.4653 57.2791 18.7801 58.1447 19.3241 58.7007L19.4584 58.8228L42.4075 36.4256V35.8968L19.4584 13.4997L19.3241 13.6308Z" fill="url(#paint0_linear_2079_2820)"/>
<path d="M50.0484 43.8945L42.4072 36.4251V35.8962L50.0577 28.4267L50.229 28.5239L59.2892 33.5571C61.8748 34.9854 61.8748 37.3359 59.2892 38.7733L50.229 43.7973L50.0484 43.8945Z" fill="url(#paint1_linear_2079_2820)"/>
<path d="M50.2293 43.7976L42.4076 36.1609L19.3242 58.7004C20.183 59.5818 21.5835 59.6881 23.1761 58.8066L50.2293 43.7976Z" fill="url(#paint2_linear_2079_2820)"/>
<path d="M50.2293 28.5244L23.1761 13.5154C21.5835 12.643 20.183 12.7493 19.3242 13.6307L42.4076 36.1611L50.2293 28.5244Z" fill="url(#paint3_linear_2079_2820)"/>
<defs>
<linearGradient id="paint0_linear_2079_2820" x1="40.3699" y1="56.5745" x2="10.0353" y2="25.5049" gradientUnits="userSpaceOnUse">
<stop stop-color="#00A0FF"/>
<stop offset="0.0066" stop-color="#00A1FF"/>
<stop offset="0.2601" stop-color="#00BEFF"/>
<stop offset="0.5122" stop-color="#00D2FF"/>
<stop offset="0.7604" stop-color="#00DFFF"/>
<stop offset="1" stop-color="#00E3FF"/>
</linearGradient>
<linearGradient id="paint1_linear_2079_2820" x1="62.6561" y1="36.1581" x2="17.847" y2="36.1581" gradientUnits="userSpaceOnUse">
<stop stop-color="#FFE000"/>
<stop offset="0.4087" stop-color="#FFBD00"/>
<stop offset="0.7754" stop-color="#FFA500"/>
<stop offset="1" stop-color="#FF9C00"/>
</linearGradient>
<linearGradient id="paint2_linear_2079_2820" x1="45.9761" y1="32.0095" x2="4.83992" y2="-10.1234" gradientUnits="userSpaceOnUse">
<stop stop-color="#FF3A44"/>
<stop offset="1" stop-color="#C31162"/>
</linearGradient>
<linearGradient id="paint3_linear_2079_2820" x1="13.5137" y1="72.0034" x2="31.8828" y2="53.1893" gradientUnits="userSpaceOnUse">
<stop stop-color="#32A071"/>
<stop offset="0.0685" stop-color="#2DA771"/>
<stop offset="0.4762" stop-color="#15CF74"/>
<stop offset="0.8009" stop-color="#06E775"/>
<stop offset="1" stop-color="#00F076"/>
</linearGradient>
</defs>
</svg>
