<svg width="143" height="51" viewBox="0 0 143 51" fill="none" xmlns="http://www.w3.org/2000/svg">
<path d="M2.72047 38V14.96H17.7605V19.024H7.07247V23.952H15.8405V28.016H7.07247V33.936H17.7605V38H2.72047ZM30.2995 38V19.024H23.0355V14.96H41.9155V19.024H34.6515V38H30.2995ZM57.7347 38.48C55.4627 38.48 53.4841 37.984 51.7987 36.992C50.1134 35.9893 48.8174 34.5813 47.9107 32.768C47.0147 30.9547 46.5667 28.8587 46.5667 26.48C46.5667 24.1013 47.0147 22.0053 47.9107 20.192C48.8174 18.3787 50.1134 16.976 51.7987 15.984C53.4841 14.9813 55.4627 14.48 57.7347 14.48C60.0067 14.48 61.9854 14.9813 63.6707 15.984C65.3561 16.976 66.6467 18.3787 67.5427 20.192C68.4494 22.0053 68.9027 24.1013 68.9027 26.48C68.9027 28.8587 68.4494 30.9547 67.5427 32.768C66.6467 34.5813 65.3561 35.9893 63.6707 36.992C61.9854 37.984 60.0067 38.48 57.7347 38.48ZM57.7347 34.384C59.1641 34.4053 60.3694 34.096 61.3507 33.456C62.3321 32.8053 63.0681 31.888 63.5587 30.704C64.0494 29.5093 64.2947 28.1013 64.2947 26.48C64.2947 24.8693 64.0494 23.4773 63.5587 22.304C63.0681 21.12 62.3321 20.208 61.3507 19.568C60.3801 18.928 59.1747 18.5973 57.7347 18.576C56.3054 18.5547 55.1001 18.8693 54.1187 19.52C53.1374 20.16 52.4014 21.0773 51.9107 22.272C51.4201 23.456 51.1747 24.8587 51.1747 26.48C51.1747 28.0907 51.4201 29.488 51.9107 30.672C52.4014 31.8453 53.1321 32.752 54.1027 33.392C55.0841 34.032 56.2947 34.3627 57.7347 34.384ZM88.5767 14.96H93.8887L77.5527 32.832L77.5847 26.864L88.5767 14.96ZM89.1047 38L79.9847 26.864L84.0327 25.216L94.4967 38H89.1047ZM75.4567 38V14.96H79.6487V38H75.4567Z" fill="black"/>
<path d="M122.447 0L108.086 11.8508L122.447 23.5741H128.167L114.441 11.8508L128.167 0H122.447Z" fill="black"/>
<path d="M105.199 38L119.561 26.1492L105.199 14.4259L99.4799 14.4259L113.206 26.1492L99.4799 38H105.199Z" fill="black"/>
<path d="M128.98 29.6646C128.98 31.501 127.496 32.9875 125.667 32.9875C123.839 32.9875 122.354 31.501 122.354 29.6646C122.354 27.8282 123.839 26.3418 125.667 26.3418C127.496 26.3418 128.98 27.8282 128.98 29.6646Z" stroke="black"/>
</svg>
