<svg width="36" height="34" viewBox="0 0 36 34" fill="none" xmlns="http://www.w3.org/2000/svg">
<path d="M17.8593 0.595215V16.9994L16.8541 15.9754L12.356 11.3952L17.8593 0.595215Z" fill="url(#paint0_linear_1376_659)"/>
<path d="M17.8597 17.0001L8.95426 21.5341L0.0488281 13.1276L15.98 16.5906L17.8597 17.0001Z" fill="url(#paint1_linear_1376_659)"/>
<path d="M17.8599 16.9999V27.7995L6.85254 33.4048L17.8599 16.9999Z" fill="url(#paint2_linear_1376_659)"/>
<path d="M28.8668 33.4048L17.8594 16.9999L26.7648 21.5339L28.8668 33.4048Z" fill="url(#paint3_linear_1376_659)"/>
<path d="M35.6699 13.1272L17.8594 16.9997L23.3638 11.3955L35.6699 13.1272Z" fill="url(#paint4_linear_1376_659)"/>
<path d="M17.8599 16.9999L6.85254 33.4048L8.95451 21.5339L17.8599 16.9999Z" fill="url(#paint5_linear_1376_659)"/>
<path d="M23.3638 11.3952L17.8594 16.9994V0.595215L23.3638 11.3952Z" fill="url(#paint6_linear_1376_659)"/>
<path d="M17.8597 16.9997L15.98 16.5902L0.0488281 13.1272L12.3563 11.3955L16.8544 15.9757L17.8597 16.9997Z" fill="url(#paint7_linear_1376_659)"/>
<path d="M35.6699 13.1276L26.7648 21.5341L17.8594 17.0001L35.6699 13.1276Z" fill="url(#paint8_linear_1376_659)"/>
<path d="M28.8668 33.4048L17.8594 27.7995V16.9999L28.8668 33.4048Z" fill="url(#paint9_linear_1376_659)"/>
<defs>
<linearGradient id="paint0_linear_1376_659" x1="13.4797" y1="8.54131" x2="18.8527" y2="8.87613" gradientUnits="userSpaceOnUse">
<stop stop-color="#E85317"/>
<stop offset="1" stop-color="#A13B00"/>
</linearGradient>
<linearGradient id="paint1_linear_1376_659" x1="7.80948" y1="20.1908" x2="8.74462" y2="15.7256" gradientUnits="userSpaceOnUse">
<stop stop-color="#E85317"/>
<stop offset="1" stop-color="#A13B00"/>
</linearGradient>
<linearGradient id="paint2_linear_1376_659" x1="16.1451" y1="28.2504" x2="12.2127" y2="24.8769" gradientUnits="userSpaceOnUse">
<stop stop-color="#E85317"/>
<stop offset="1" stop-color="#A13B00"/>
</linearGradient>
<linearGradient id="paint3_linear_1376_659" x1="26.7652" y1="23.3718" x2="22.9107" y2="25.5831" gradientUnits="userSpaceOnUse">
<stop stop-color="#E85317"/>
<stop offset="0.71" stop-color="#A13B00"/>
</linearGradient>
<linearGradient id="paint4_linear_1376_659" x1="25.2939" y1="11.5955" x2="26.6464" y2="14.9957" gradientUnits="userSpaceOnUse">
<stop stop-color="#E85317"/>
<stop offset="1" stop-color="#A13B00"/>
</linearGradient>
<linearGradient id="paint5_linear_1376_659" x1="11.709" y1="24.5158" x2="9.19037" y2="21.6673" gradientUnits="userSpaceOnUse">
<stop stop-color="#F76319"/>
<stop offset="1" stop-color="#B34A00"/>
</linearGradient>
<linearGradient id="paint6_linear_1376_659" x1="18.345" y1="8.82585" x2="24.0163" y2="9.17913" gradientUnits="userSpaceOnUse">
<stop stop-color="#F76319"/>
<stop offset="1" stop-color="#B34A00"/>
</linearGradient>
<linearGradient id="paint7_linear_1376_659" x1="8.98721" y1="14.9472" x2="10.217" y2="10.2899" gradientUnits="userSpaceOnUse">
<stop stop-color="#F76319"/>
<stop offset="1" stop-color="#B34A00"/>
</linearGradient>
<linearGradient id="paint8_linear_1376_659" x1="26.7879" y1="15.2222" x2="27.5465" y2="20.7046" gradientUnits="userSpaceOnUse">
<stop stop-color="#F76319"/>
<stop offset="1" stop-color="#B34A00"/>
</linearGradient>
<linearGradient id="paint9_linear_1376_659" x1="23.571" y1="25.0536" x2="19.3817" y2="28.251" gradientUnits="userSpaceOnUse">
<stop stop-color="#F76319"/>
<stop offset="1" stop-color="#B34A00"/>
</linearGradient>
</defs>
</svg>
