<svg width="39" height="35" viewBox="0 0 39 35" fill="none" xmlns="http://www.w3.org/2000/svg">
<path d="M19.4998 -0.000244141V17.4994L18.4274 16.407L13.6289 11.521L19.4998 -0.000244141Z" fill="url(#paint0_linear_1376_877)"/>
<path d="M19.5 17.4998L9.99981 22.3365L0.5 13.3687L17.4948 17.063L19.5 17.4998Z" fill="url(#paint1_linear_1376_877)"/>
<path d="M19.4999 17.4998V29.0206L7.75732 35.0002L19.4999 17.4998Z" fill="url(#paint2_linear_1376_877)"/>
<path d="M31.2425 35.0002L19.5 17.4998L29.0002 22.3365L31.2425 35.0002Z" fill="url(#paint3_linear_1376_877)"/>
<path d="M38.5 13.3682L19.5 17.4994L25.372 11.5209L38.5 13.3682Z" fill="url(#paint4_linear_1376_877)"/>
<path d="M19.4999 17.4998L7.75732 35.0002L9.99968 22.3365L19.4999 17.4998Z" fill="url(#paint5_linear_1376_877)"/>
<path d="M25.372 11.521L19.5 17.4994V-0.000244141L25.372 11.521Z" fill="url(#paint6_linear_1376_877)"/>
<path d="M19.5 17.4994L17.4948 17.0625L0.5 13.3682L13.6291 11.5209L18.4276 16.4069L19.5 17.4994Z" fill="url(#paint7_linear_1376_877)"/>
<path d="M38.5 13.3687L29.0002 22.3365L19.5 17.4998L38.5 13.3687Z" fill="url(#paint8_linear_1376_877)"/>
<path d="M31.2425 35.0002L19.5 29.0206V17.4998L31.2425 35.0002Z" fill="url(#paint9_linear_1376_877)"/>
<defs>
<linearGradient id="paint0_linear_1376_877" x1="14.9807" y1="6.35603" x2="20.0541" y2="9.22144" gradientUnits="userSpaceOnUse">
<stop stop-color="#E39C17"/>
<stop offset="1" stop-color="#BD6A0B"/>
</linearGradient>
<linearGradient id="paint1_linear_1376_877" x1="8.63719" y1="20.7674" x2="9.81583" y2="15.8493" gradientUnits="userSpaceOnUse">
<stop stop-color="#E39C17"/>
<stop offset="1" stop-color="#BD6A0B"/>
</linearGradient>
<linearGradient id="paint2_linear_1376_877" x1="17.0604" y1="28.9083" x2="14.009" y2="26.388" gradientUnits="userSpaceOnUse">
<stop stop-color="#E39C17"/>
<stop offset="1" stop-color="#BD6A0B"/>
</linearGradient>
<linearGradient id="paint3_linear_1376_877" x1="29.5747" y1="24.4512" x2="25.1366" y2="26.4763" gradientUnits="userSpaceOnUse">
<stop stop-color="#E39C17"/>
<stop offset="1" stop-color="#BD6A0B"/>
</linearGradient>
<linearGradient id="paint4_linear_1376_877" x1="28.5689" y1="11.4419" x2="29.0094" y2="15.7897" gradientUnits="userSpaceOnUse">
<stop stop-color="#E39C17"/>
<stop offset="1" stop-color="#BD6A0B"/>
</linearGradient>
<linearGradient id="paint5_linear_1376_877" x1="13.7049" y1="26.4941" x2="12.5737" y2="22.6348" gradientUnits="userSpaceOnUse">
<stop stop-color="#F7CC19"/>
<stop offset="1" stop-color="#E39300"/>
</linearGradient>
<linearGradient id="paint6_linear_1376_877" x1="20.018" y1="8.78002" x2="26.0681" y2="9.1569" gradientUnits="userSpaceOnUse">
<stop stop-color="#F7CC19"/>
<stop offset="1" stop-color="#E39300"/>
</linearGradient>
<linearGradient id="paint7_linear_1376_877" x1="10.2923" y1="14.5505" x2="11.1289" y2="11.8573" gradientUnits="userSpaceOnUse">
<stop stop-color="#F7CC19"/>
<stop offset="1" stop-color="#E39300"/>
</linearGradient>
<linearGradient id="paint8_linear_1376_877" x1="28.9418" y1="14.4455" x2="29.3334" y2="21.5197" gradientUnits="userSpaceOnUse">
<stop stop-color="#F7CC19"/>
<stop offset="1" stop-color="#E39300"/>
</linearGradient>
<linearGradient id="paint9_linear_1376_877" x1="24.5903" y1="26.2938" x2="20.1051" y2="26.5629" gradientUnits="userSpaceOnUse">
<stop stop-color="#F7CC19"/>
<stop offset="1" stop-color="#E39300"/>
</linearGradient>
</defs>
</svg>
