<svg width="70" height="70" viewBox="0 0 70 70" fill="none" xmlns="http://www.w3.org/2000/svg">
<rect width="70" height="70" rx="4.375" fill="#FFBF65"/>
<g filter="url(#filter0_d_1957_2644)">
<path d="M61.9836 13.125H8.0162C6.81059 13.125 5.83325 14.1023 5.83325 15.308V39.1681C5.83325 41.0295 6.80323 42.7564 8.39279 43.725L32.2234 58.2454C33.9286 59.2844 36.0712 59.2844 37.7765 58.2454L61.607 43.725C63.1966 42.7564 64.1666 41.0295 64.1666 39.1681V15.308C64.1666 14.1023 63.1892 13.125 61.9836 13.125Z" fill="#6ECFE5" stroke="white" stroke-width="1.33403"/>
<path d="M59.4039 15.3079H10.5959C9.50607 15.3079 8.62256 16.1914 8.62256 17.2813V38.2996C8.62256 39.9979 9.51561 41.5711 10.9738 42.4415L32.5273 55.308C34.0504 56.2171 35.9494 56.2171 37.4725 55.308L59.026 42.4415C60.4842 41.5711 61.3772 39.9979 61.3772 38.2996V17.2812C61.3772 16.1914 60.4937 15.3079 59.4039 15.3079Z" stroke="white" stroke-width="0.606376" stroke-dasharray="1.94 1.94"/>
<path d="M27.3552 36.0081C26.1303 36.0081 25.1378 35.6279 24.3776 34.8677C23.6173 34.1075 23.2372 33.1149 23.2372 31.8901V26.1249C23.2372 25.8208 23.3893 25.5674 23.6933 25.3647C24.0059 25.1535 24.3818 25.0479 24.821 25.0479C25.2603 25.0479 25.632 25.1535 25.9361 25.3647C26.2486 25.5674 26.4049 25.8208 26.4049 26.1249V31.8901C26.4049 32.2871 26.464 32.5447 26.5823 32.663C26.7005 32.7813 26.9582 32.8404 27.3552 32.8404H27.5072C27.9465 32.8404 28.3181 32.9967 28.6222 33.3092C28.9348 33.6133 29.091 33.985 29.091 34.4242C29.091 34.8635 28.9348 35.2394 28.6222 35.5519C28.3181 35.856 27.9465 36.0081 27.5072 36.0081H27.3552ZM27.3878 36.0081C26.9486 36.0081 26.5769 35.856 26.2728 35.5519C25.9603 35.2394 25.804 34.8635 25.804 34.4242C25.804 33.985 25.9603 33.6133 26.2728 33.3092C26.5769 32.9967 26.9486 32.8404 27.3878 32.8404H27.6412C28.3761 32.8404 28.7436 32.4687 28.7436 31.7254V30.471C28.7436 30.0317 28.8914 29.7023 29.1871 29.4827C29.4827 29.2546 29.8628 29.1406 30.3274 29.1406C30.792 29.1406 31.1721 29.2546 31.4678 29.4827C31.7634 29.7023 31.9113 30.0317 31.9113 30.471V31.7254C31.9113 32.1393 31.9831 32.4307 32.1267 32.5996C32.2703 32.7601 32.5279 32.8404 32.8996 32.8404H33.0136C33.4529 32.8404 33.8288 32.9967 34.1413 33.3092C34.4538 33.6133 34.6101 33.985 34.6101 34.4242C34.6101 34.8635 34.4538 35.2394 34.1413 35.5519C33.8372 35.856 33.4655 36.0081 33.0263 36.0081H32.9503C32.0211 36.0081 31.2439 35.742 30.6189 35.2098C30.9821 34.7959 31.2186 34.4369 31.3284 34.1328C31.3706 34.0145 31.3706 33.9554 31.3284 33.9554C31.3031 33.9554 31.2651 33.9934 31.2144 34.0694C31.0201 34.3651 30.7498 34.6734 30.4035 34.9944C29.6094 35.6702 28.6887 36.0081 27.6412 36.0081H27.3878ZM30.3274 38.7703C30.1331 38.9645 29.9051 39.0617 29.6432 39.0617C29.3814 39.0617 29.1533 38.9645 28.959 38.7703C28.7647 38.5844 28.6676 38.3564 28.6676 38.086C28.6676 37.8157 28.7647 37.5834 28.959 37.3892C29.1533 37.2033 29.3814 37.1104 29.6432 37.1104C29.9051 37.1104 30.1331 37.2033 30.3274 37.3892C30.5217 37.5834 30.6189 37.8157 30.6189 38.086C30.6189 38.3564 30.5217 38.5844 30.3274 38.7703ZM33.4015 36.0081C32.9622 36.0081 32.5905 35.856 32.2864 35.5519C31.9739 35.2394 31.8176 34.8635 31.8176 34.4242C31.8176 33.985 31.9739 33.6133 32.2864 33.3092C32.5905 32.9967 32.9622 32.8404 33.4015 32.8404H33.6549C34.3898 32.8404 34.7572 32.4687 34.7572 31.7254V30.471C34.7572 30.0317 34.905 29.7023 35.2007 29.4827C35.4963 29.2546 35.8765 29.1406 36.341 29.1406C36.8056 29.1406 37.1858 29.2546 37.4814 29.4827C37.7771 29.7023 37.9249 30.0317 37.9249 30.471V31.7254C37.9249 32.1393 37.9967 32.4307 38.1403 32.5996C38.2839 32.7601 38.5415 32.8404 38.9132 32.8404H39.0272C39.4665 32.8404 39.8424 32.9967 40.1549 33.3092C40.4675 33.6133 40.6237 33.985 40.6237 34.4242C40.6237 34.8635 40.4675 35.2394 40.1549 35.5519C39.8508 35.856 39.4791 36.0081 39.0399 36.0081H38.9639C38.0347 36.0081 37.2576 35.742 36.6325 35.2098C36.9957 34.7959 37.2322 34.4369 37.342 34.1328C37.3843 34.0145 37.3843 33.9554 37.342 33.9554C37.3167 33.9554 37.2787 33.9934 37.228 34.0694C37.0337 34.3651 36.7634 34.6734 36.4171 34.9944C35.623 35.6702 34.7023 36.0081 33.6549 36.0081H33.4015ZM35.6315 38.8083C35.4372 39.0026 35.2091 39.0997 34.9473 39.0997C34.6854 39.0997 34.4573 39.0026 34.2631 38.8083C34.0688 38.614 33.9716 38.3859 33.9716 38.1241C33.9716 37.8622 34.0688 37.6341 34.2631 37.4398C34.4573 37.2456 34.6854 37.1484 34.9473 37.1484C35.2091 37.1484 35.4372 37.2456 35.6315 37.4398C35.8258 37.6341 35.9229 37.8622 35.9229 38.1241C35.9229 38.3859 35.8258 38.614 35.6315 38.8083ZM38.0769 38.8083C37.8911 39.0026 37.663 39.0997 37.3927 39.0997C37.1224 39.0997 36.8901 39.0026 36.6958 38.8083C36.51 38.614 36.4171 38.3859 36.4171 38.1241C36.4171 37.8622 36.51 37.6341 36.6958 37.4398C36.8901 37.2456 37.1224 37.1484 37.3927 37.1484C37.663 37.1484 37.8911 37.2456 38.0769 37.4398C38.2712 37.6341 38.3684 37.8622 38.3684 38.1241C38.3684 38.3859 38.2712 38.614 38.0769 38.8083ZM38.9229 36.0081C38.4836 36.0081 38.1077 35.856 37.7952 35.5519C37.4827 35.2394 37.3264 34.8635 37.3264 34.4242C37.3264 33.985 37.4827 33.6133 37.7952 33.3092C38.0993 32.9967 38.471 32.8404 38.9102 32.8404H44.3713C44.4726 32.8404 44.5233 32.8108 44.5233 32.7517C44.5233 32.7095 44.4769 32.6799 44.3839 32.663L42.5594 32.5236L39.8352 30.6864C39.4804 30.4499 39.2988 30.0782 39.2903 29.5714C39.2903 29.0645 39.4466 28.6506 39.7592 28.3296C40.0632 28.0002 40.4307 27.8313 40.8615 27.8228C41.3008 27.8144 41.6935 27.9622 42.0399 28.2663L46.2465 31.9154C46.6267 32.2449 46.8505 32.6503 46.9181 33.1318C46.9941 33.6049 46.9307 34.0526 46.728 34.4749C46.5337 34.8973 46.1874 35.2605 45.689 35.5646C45.1906 35.8602 44.612 36.0081 43.9531 36.0081H38.9229ZM43.8391 38.8716C43.6533 39.0659 43.4252 39.1631 43.1549 39.1631C42.8846 39.1631 42.6523 39.0659 42.458 38.8716C42.2722 38.6858 42.1792 38.4577 42.1792 38.1874C42.1792 37.9171 42.2722 37.6848 42.458 37.4905C42.6523 37.3047 42.8846 37.2118 43.1549 37.2118C43.4252 37.2118 43.6533 37.3047 43.8391 37.4905C44.0334 37.6848 44.1305 37.9171 44.1305 38.1874C44.1305 38.4577 44.0334 38.6858 43.8391 38.8716Z" fill="white"/>
<path d="M24.3776 34.8677L23.9488 35.2965L24.3776 34.8677ZM23.6933 25.3647L24.0297 25.8692L24.0328 25.8671L23.6933 25.3647ZM25.9361 25.3647L25.5902 25.8628L25.598 25.8682L25.6061 25.8734L25.9361 25.3647ZM26.5823 32.663L27.011 32.2342L26.5823 32.663ZM28.6222 33.3092L28.1876 33.7321L28.1934 33.738L28.1994 33.7438L28.6222 33.3092ZM27.3552 35.4017C26.2668 35.4017 25.4367 35.0693 24.8063 34.4389L23.9488 35.2965C24.8389 36.1866 25.9939 36.6144 27.3552 36.6144V35.4017ZM24.8063 34.4389C24.1759 33.8085 23.8436 32.9785 23.8436 31.8901H22.6308C22.6308 33.2514 23.0587 34.4064 23.9488 35.2965L24.8063 34.4389ZM23.8436 31.8901V26.1249H22.6308V31.8901H23.8436ZM23.8436 26.1249C23.8436 26.0665 23.8552 25.9856 24.0297 25.8692L23.357 24.8602C22.9233 25.1493 22.6308 25.5752 22.6308 26.1249H23.8436ZM24.0328 25.8671C24.2294 25.7343 24.4824 25.6543 24.821 25.6543V24.4416C24.2812 24.4416 23.7823 24.5728 23.3539 24.8623L24.0328 25.8671ZM24.821 25.6543C25.1602 25.6543 25.4054 25.7345 25.5902 25.8628L26.2819 24.8666C25.8585 24.5726 25.3603 24.4416 24.821 24.4416V25.6543ZM25.6061 25.8734C25.7907 25.9932 25.7985 26.0742 25.7985 26.1249H27.0112C27.0112 25.5675 26.7064 25.1416 26.266 24.856L25.6061 25.8734ZM25.7985 26.1249V31.8901H27.0112V26.1249H25.7985ZM25.7985 31.8901C25.7985 32.1139 25.8147 32.3272 25.8582 32.5167C25.8997 32.6977 25.9797 32.918 26.1535 33.0918L27.011 32.2342C27.0665 32.2897 27.0578 32.3221 27.0402 32.2454C27.0246 32.1773 27.0112 32.0633 27.0112 31.8901H25.7985ZM26.1535 33.0918C26.3272 33.2655 26.5476 33.3455 26.7285 33.3871C26.9181 33.4306 27.1314 33.4468 27.3552 33.4468V32.234C27.182 32.234 27.0679 32.2207 26.9998 32.205C26.9232 32.1874 26.9556 32.1788 27.011 32.2342L26.1535 33.0918ZM27.3552 33.4468H27.5072V32.234H27.3552V33.4468ZM27.5072 33.4468C27.7841 33.4468 27.9986 33.5378 28.1876 33.7321L29.0568 32.8863C28.6376 32.4555 28.1088 32.234 27.5072 32.234V33.4468ZM28.1994 33.7438C28.3936 33.9328 28.4847 34.1473 28.4847 34.4242H29.6974C29.6974 33.8226 29.4759 33.2938 29.0451 32.8746L28.1994 33.7438ZM28.4847 34.4242C28.4847 34.7015 28.3931 34.9235 28.1935 35.1231L29.051 35.9807C29.4765 35.5552 29.6974 35.0254 29.6974 34.4242H28.4847ZM28.1935 35.1231C28.0058 35.3108 27.7895 35.4017 27.5072 35.4017V36.6144C28.1034 36.6144 28.6305 36.4012 29.051 35.9807L28.1935 35.1231ZM27.5072 35.4017H27.3552V36.6144H27.5072V35.4017ZM26.2728 33.3092L26.6957 33.7438L26.7016 33.738L26.7074 33.7321L26.2728 33.3092ZM29.1871 29.4827L29.5487 29.9695L29.5574 29.9628L29.1871 29.4827ZM31.4678 29.4827L31.0974 29.9629L31.1062 29.9694L31.4678 29.4827ZM32.1267 32.5996L31.6646 32.9924L31.6696 32.9982L31.6748 33.004L32.1267 32.5996ZM34.1413 33.3092L33.7125 33.738L33.7184 33.7438L34.1413 33.3092ZM30.6189 35.2098L30.1631 34.8098L29.7571 35.2725L30.2258 35.6715L30.6189 35.2098ZM31.3284 34.1328L31.8987 34.3388L31.8995 34.3367L31.3284 34.1328ZM31.2144 34.0694L30.7098 33.7331L30.7076 33.7364L31.2144 34.0694ZM30.4035 34.9944L30.7965 35.4562L30.8062 35.4479L30.8156 35.4391L30.4035 34.9944ZM30.3274 38.7703L29.9082 38.332L29.8987 38.3415L30.3274 38.7703ZM28.959 38.7703L29.3879 38.3414L29.3781 38.3321L28.959 38.7703ZM28.959 37.3892L28.5398 36.9509L28.5302 36.9604L28.959 37.3892ZM30.3274 37.3892L30.7563 36.9603L30.7466 36.951L30.3274 37.3892ZM27.3878 35.4017C27.1056 35.4017 26.8893 35.3108 26.7016 35.1231L25.844 35.9807C26.2646 36.4012 26.7916 36.6144 27.3878 36.6144V35.4017ZM26.7016 35.1231C26.502 34.9235 26.4104 34.7015 26.4104 34.4242H25.1976C25.1976 35.0254 25.4186 35.5552 25.844 35.9807L26.7016 35.1231ZM26.4104 34.4242C26.4104 34.1473 26.5014 33.9328 26.6957 33.7438L25.85 32.8746C25.4191 33.2938 25.1976 33.8226 25.1976 34.4242H26.4104ZM26.7074 33.7321C26.8964 33.5378 27.1109 33.4468 27.3878 33.4468V32.234C26.7862 32.234 26.2574 32.4555 25.8382 32.8863L26.7074 33.7321ZM27.3878 33.4468H27.6412V32.234H27.3878V33.4468ZM27.6412 33.4468C28.1039 33.4468 28.5619 33.3291 28.8992 32.988C29.2353 32.6481 29.35 32.1888 29.35 31.7254H28.1372C28.1372 32.0053 28.0682 32.1035 28.0368 32.1353C28.0066 32.1658 27.9135 32.234 27.6412 32.234V33.4468ZM29.35 31.7254V30.471H28.1372V31.7254H29.35ZM29.35 30.471C29.35 30.1819 29.4377 30.0519 29.5487 29.9694L28.8255 28.9959C28.3452 29.3527 28.1372 29.8816 28.1372 30.471H29.35ZM29.5574 29.9628C29.7233 29.8349 29.9635 29.7469 30.3274 29.7469V28.5342C29.7622 28.5342 29.2422 28.6743 28.8167 29.0025L29.5574 29.9628ZM30.3274 29.7469C30.6914 29.7469 30.9316 29.8349 31.0974 29.9628L31.8382 29.0025C31.4127 28.6743 30.8926 28.5342 30.3274 28.5342V29.7469ZM31.1062 29.9694C31.2172 30.0519 31.3049 30.1819 31.3049 30.471H32.5176C32.5176 29.8816 32.3097 29.3527 31.8294 28.9959L31.1062 29.9694ZM31.3049 30.471V31.7254H32.5176V30.471H31.3049ZM31.3049 31.7254C31.3049 32.1737 31.3755 32.6522 31.6646 32.9924L32.5887 32.2069C32.5954 32.2148 32.5749 32.1945 32.5539 32.1093C32.5331 32.0251 32.5176 31.9004 32.5176 31.7254H31.3049ZM31.6748 33.004C31.994 33.3607 32.474 33.4468 32.8996 33.4468V32.234C32.7536 32.234 32.661 32.2178 32.6079 32.2013C32.5575 32.1856 32.5609 32.1756 32.5786 32.1953L31.6748 33.004ZM32.8996 33.4468H33.0136V32.234H32.8996V33.4468ZM33.0136 33.4468C33.2909 33.4468 33.5129 33.5384 33.7125 33.738L34.5701 32.8804C34.1446 32.455 33.6148 32.234 33.0136 32.234V33.4468ZM33.7184 33.7438C33.9127 33.9328 34.0037 34.1473 34.0037 34.4242H35.2165C35.2165 33.8226 34.995 33.2938 34.5642 32.8746L33.7184 33.7438ZM34.0037 34.4242C34.0037 34.7015 33.9122 34.9235 33.7125 35.1231L34.5701 35.9807C34.9955 35.5552 35.2165 35.0254 35.2165 34.4242H34.0037ZM33.7125 35.1231C33.5248 35.3108 33.3086 35.4017 33.0263 35.4017V36.6144C33.6225 36.6144 34.1496 36.4012 34.5701 35.9807L33.7125 35.1231ZM33.0263 35.4017H32.9503V36.6144H33.0263V35.4017ZM32.9503 35.4017C32.1449 35.4017 31.5129 35.1746 31.0119 34.7481L30.2258 35.6715C30.975 36.3094 31.8972 36.6144 32.9503 36.6144V35.4017ZM31.0746 35.6098C31.4577 35.1732 31.7513 34.7472 31.8987 34.3388L30.7581 33.9268C30.6859 34.1266 30.5065 34.4185 30.1631 34.8098L31.0746 35.6098ZM31.8995 34.3367C31.9237 34.2689 31.9665 34.1407 31.9665 33.9998C31.9665 33.9311 31.9575 33.7707 31.8456 33.614C31.7068 33.4198 31.4983 33.349 31.3284 33.349V34.5618C31.1796 34.5618 30.9869 34.4984 30.8587 34.3189C30.7574 34.1771 30.7537 34.0388 30.7537 33.9998C30.7537 33.918 30.7754 33.8785 30.7574 33.9289L31.8995 34.3367ZM31.3284 33.349C31.173 33.349 31.0567 33.4056 30.9951 33.4426C30.9302 33.4815 30.8823 33.5249 30.8521 33.5551C30.7921 33.6152 30.7443 33.6814 30.7098 33.7331L31.7189 34.4058C31.7352 34.3814 31.7317 34.3906 31.7097 34.4127C31.6985 34.4239 31.6681 34.4531 31.619 34.4825C31.5732 34.51 31.4712 34.5618 31.3284 34.5618V33.349ZM30.7076 33.7364C30.5475 33.9801 30.3128 34.2516 29.9913 34.5497L30.8156 35.4391C31.1867 35.0952 31.4927 34.75 31.7211 34.4025L30.7076 33.7364ZM30.0104 34.5326C29.3266 35.1146 28.5454 35.4017 27.6412 35.4017V36.6144C28.832 36.6144 29.8922 36.2258 30.7965 35.4562L30.0104 34.5326ZM27.6412 35.4017H27.3878V36.6144H27.6412V35.4017ZM29.8987 38.3415C29.8119 38.4283 29.7356 38.4553 29.6432 38.4553V39.6681C30.0745 39.6681 30.4544 39.5008 30.7562 39.199L29.8987 38.3415ZM29.6432 38.4553C29.5508 38.4553 29.4746 38.4283 29.3878 38.3415L28.5302 39.199C28.832 39.5008 29.2119 39.6681 29.6432 39.6681V38.4553ZM29.3781 38.3321C29.3042 38.2613 29.2739 38.1919 29.2739 38.086H28.0612C28.0612 38.5208 28.2252 38.9075 28.5399 39.2085L29.3781 38.3321ZM29.2739 38.086C29.2739 37.9795 29.3051 37.9006 29.3878 37.8179L28.5302 36.9604C28.2243 37.2663 28.0612 37.652 28.0612 38.086H29.2739ZM29.3781 37.8274C29.4629 37.7463 29.5421 37.7168 29.6432 37.7168V36.504C29.2206 36.504 28.8436 36.6604 28.5399 36.951L29.3781 37.8274ZM29.6432 37.7168C29.7443 37.7168 29.8235 37.7463 29.9083 37.8274L30.7466 36.951C30.4428 36.6604 30.0658 36.504 29.6432 36.504V37.7168ZM29.8987 37.8179C29.9813 37.9006 30.0125 37.9795 30.0125 38.086H31.2252C31.2252 37.652 31.0621 37.2663 30.7562 36.9604L29.8987 37.8179ZM30.0125 38.086C30.0125 38.1919 29.9822 38.2613 29.9083 38.3321L30.7466 39.2085C31.0612 38.9075 31.2252 38.5208 31.2252 38.086H30.0125ZM32.2864 33.3092L32.7093 33.7438L32.7152 33.738L32.721 33.7321L32.2864 33.3092ZM35.2007 29.4827L35.5623 29.9695L35.5711 29.9628L35.2007 29.4827ZM37.4814 29.4827L37.111 29.9629L37.1198 29.9694L37.4814 29.4827ZM38.1403 32.5996L37.6783 32.9924L37.6832 32.9982L37.6884 33.004L38.1403 32.5996ZM40.1549 33.3092L39.7261 33.738L39.7321 33.7438L40.1549 33.3092ZM36.6325 35.2098L36.1767 34.8098L35.7707 35.2725L36.2394 35.6715L36.6325 35.2098ZM37.342 34.1328L37.9124 34.3388L37.9131 34.3367L37.342 34.1328ZM37.228 34.0694L36.7234 33.7331L36.7212 33.7364L37.228 34.0694ZM36.4171 34.9944L36.8101 35.4562L36.8198 35.4479L36.8293 35.4391L36.4171 34.9944ZM35.6315 38.8083L35.2027 38.3795L35.6315 38.8083ZM34.2631 38.8083L34.6918 38.3795L34.2631 38.8083ZM34.2631 37.4398L33.8343 37.0111L34.2631 37.4398ZM35.6315 37.4398L35.2027 37.8686L35.6315 37.4398ZM38.0769 38.8083L37.648 38.3794L37.6387 38.3891L38.0769 38.8083ZM36.6958 38.8083L36.2575 39.2275L36.267 39.237L36.6958 38.8083ZM36.6958 37.4398L36.2669 37.011L36.2576 37.0207L36.6958 37.4398ZM38.0769 37.4398L37.6386 37.8591L37.6482 37.8686L38.0769 37.4398ZM33.4015 35.4017C33.1192 35.4017 32.9029 35.3108 32.7152 35.1231L31.8577 35.9807C32.2782 36.4012 32.8052 36.6144 33.4015 36.6144V35.4017ZM32.7152 35.1231C32.5156 34.9235 32.424 34.7015 32.424 34.4242H31.2112C31.2112 35.0254 31.4322 35.5552 31.8577 35.9807L32.7152 35.1231ZM32.424 34.4242C32.424 34.1473 32.515 33.9328 32.7093 33.7438L31.8636 32.8746C31.4327 33.2938 31.2112 33.8226 31.2112 34.4242H32.424ZM32.721 33.7321C32.91 33.5378 33.1246 33.4468 33.4015 33.4468V32.234C32.7998 32.234 32.271 32.4555 31.8518 32.8863L32.721 33.7321ZM33.4015 33.4468H33.6549V32.234H33.4015V33.4468ZM33.6549 33.4468C34.1175 33.4468 34.5756 33.3291 34.9128 32.988C35.2489 32.6481 35.3636 32.1888 35.3636 31.7254H34.1508C34.1508 32.0053 34.0818 32.1035 34.0504 32.1353C34.0203 32.1658 33.9271 32.234 33.6549 32.234V33.4468ZM35.3636 31.7254V30.471H34.1508V31.7254H35.3636ZM35.3636 30.471C35.3636 30.1819 35.4513 30.0519 35.5623 29.9694L34.8391 28.9959C34.3588 29.3527 34.1508 29.8816 34.1508 30.471H35.3636ZM35.5711 29.9628C35.7369 29.8349 35.9771 29.7469 36.341 29.7469V28.5342C35.7758 28.5342 35.2558 28.6743 34.8303 29.0025L35.5711 29.9628ZM36.341 29.7469C36.705 29.7469 36.9452 29.8349 37.111 29.9628L37.8518 29.0025C37.4263 28.6743 36.9063 28.5342 36.341 28.5342V29.7469ZM37.1198 29.9694C37.2308 30.0519 37.3185 30.1819 37.3185 30.471H38.5313C38.5313 29.8816 38.3233 29.3527 37.843 28.9959L37.1198 29.9694ZM37.3185 30.471V31.7254H38.5313V30.471H37.3185ZM37.3185 31.7254C37.3185 32.1737 37.3891 32.6522 37.6783 32.9924L38.6023 32.2069C38.609 32.2148 38.5885 32.1945 38.5675 32.1093C38.5468 32.0251 38.5313 31.9004 38.5313 31.7254H37.3185ZM37.6884 33.004C38.0076 33.3607 38.4876 33.4468 38.9132 33.4468V32.234C38.7672 32.234 38.6746 32.2178 38.6215 32.2013C38.5711 32.1856 38.5745 32.1756 38.5922 32.1953L37.6884 33.004ZM38.9132 33.4468H39.0272V32.234H38.9132V33.4468ZM39.0272 33.4468C39.3045 33.4468 39.5265 33.5384 39.7261 33.738L40.5837 32.8804C40.1582 32.455 39.6284 32.234 39.0272 32.234V33.4468ZM39.7321 33.7438C39.9263 33.9328 40.0174 34.1473 40.0174 34.4242H41.2301C41.2301 33.8226 41.0086 33.2938 40.5778 32.8746L39.7321 33.7438ZM40.0174 34.4242C40.0174 34.7015 39.9258 34.9235 39.7261 35.1231L40.5837 35.9807C41.0091 35.5552 41.2301 35.0254 41.2301 34.4242H40.0174ZM39.7261 35.1231C39.5385 35.3108 39.3222 35.4017 39.0399 35.4017V36.6144C39.6361 36.6144 40.1632 36.4012 40.5837 35.9807L39.7261 35.1231ZM39.0399 35.4017H38.9639V36.6144H39.0399V35.4017ZM38.9639 35.4017C38.1585 35.4017 37.5265 35.1746 37.0255 34.7481L36.2394 35.6715C36.9886 36.3094 37.9109 36.6144 38.9639 36.6144V35.4017ZM37.0882 35.6098C37.4713 35.1732 37.7649 34.7472 37.9124 34.3388L36.7717 33.9268C36.6996 34.1266 36.5201 34.4185 36.1767 34.8098L37.0882 35.6098ZM37.9131 34.3367C37.9373 34.2689 37.9801 34.1407 37.9801 33.9998C37.9801 33.9311 37.9711 33.7707 37.8592 33.614C37.7205 33.4198 37.512 33.349 37.342 33.349V34.5618C37.1932 34.5618 37.0006 34.4984 36.8724 34.3189C36.771 34.1771 36.7673 34.0388 36.7673 33.9998C36.7673 33.918 36.789 33.8785 36.771 33.9289L37.9131 34.3367ZM37.342 33.349C37.1866 33.349 37.0703 33.4056 37.0087 33.4426C36.9438 33.4815 36.8959 33.5249 36.8657 33.5551C36.8057 33.6152 36.7579 33.6814 36.7235 33.7331L37.7325 34.4058C37.7488 34.3814 37.7453 34.3906 37.7233 34.4127C37.7121 34.4239 37.6817 34.4531 37.6326 34.4825C37.5868 34.51 37.4848 34.5618 37.342 34.5618V33.349ZM36.7212 33.7364C36.5611 33.9801 36.3265 34.2516 36.0049 34.5497L36.8293 35.4391C37.2003 35.0952 37.5063 34.75 37.7347 34.4025L36.7212 33.7364ZM36.0241 34.5326C35.3403 35.1146 34.559 35.4017 33.6549 35.4017V36.6144C34.8456 36.6144 35.9058 36.2258 36.8101 35.4562L36.0241 34.5326ZM33.6549 35.4017H33.4015V36.6144H33.6549V35.4017ZM35.2027 38.3795C35.1159 38.4663 35.0397 38.4933 34.9473 38.4933V39.7061C35.3786 39.7061 35.7585 39.5388 36.0603 39.237L35.2027 38.3795ZM34.9473 38.4933C34.8548 38.4933 34.7786 38.4663 34.6918 38.3795L33.8343 39.237C34.136 39.5388 34.516 39.7061 34.9473 39.7061V38.4933ZM34.6918 38.3795C34.605 38.2927 34.578 38.2165 34.578 38.1241H33.3653C33.3653 38.5553 33.5325 38.9353 33.8343 39.237L34.6918 38.3795ZM34.578 38.1241C34.578 38.0316 34.605 37.9554 34.6918 37.8686L33.8343 37.0111C33.5325 37.3128 33.3653 37.6928 33.3653 38.1241H34.578ZM34.6918 37.8686C34.7786 37.7818 34.8548 37.7548 34.9473 37.7548V36.542C34.516 36.542 34.136 36.7093 33.8343 37.0111L34.6918 37.8686ZM34.9473 37.7548C35.0397 37.7548 35.1159 37.7818 35.2027 37.8686L36.0603 37.0111C35.7585 36.7093 35.3786 36.542 34.9473 36.542V37.7548ZM35.2027 37.8686C35.2895 37.9554 35.3165 38.0316 35.3165 38.1241H36.5293C36.5293 37.6928 36.362 37.3128 36.0603 37.0111L35.2027 37.8686ZM35.3165 38.1241C35.3165 38.2165 35.2895 38.2927 35.2027 38.3795L36.0603 39.237C36.362 38.9353 36.5293 38.5553 36.5293 38.1241H35.3165ZM37.6387 38.3891C37.568 38.4631 37.4985 38.4933 37.3927 38.4933V39.7061C37.8275 39.7061 38.2142 39.542 38.5151 39.2274L37.6387 38.3891ZM37.3927 38.4933C37.2862 38.4933 37.2073 38.4622 37.1246 38.3795L36.267 39.237C36.573 39.5429 36.9586 39.7061 37.3927 39.7061V38.4933ZM37.134 38.3891C37.0529 38.3043 37.0234 38.2252 37.0234 38.1241H35.8107C35.8107 38.5466 35.9671 38.9236 36.2576 39.2274L37.134 38.3891ZM37.0234 38.1241C37.0234 38.0229 37.0529 37.9438 37.134 37.859L36.2576 37.0207C35.9671 37.3245 35.8107 37.7015 35.8107 38.1241H37.0234ZM37.1246 37.8686C37.2073 37.7859 37.2862 37.7548 37.3927 37.7548V36.542C36.9586 36.542 36.573 36.7052 36.267 37.0111L37.1246 37.8686ZM37.3927 37.7548C37.4985 37.7548 37.568 37.785 37.6387 37.859L38.5151 37.0207C38.2142 36.7061 37.8275 36.542 37.3927 36.542V37.7548ZM37.6482 37.8686C37.735 37.9554 37.762 38.0316 37.762 38.1241H38.9747C38.9747 37.6928 38.8075 37.3128 38.5057 37.0111L37.6482 37.8686ZM37.762 38.1241C37.762 38.2165 37.735 38.2927 37.6482 38.3795L38.5057 39.237C38.8075 38.9353 38.9747 38.5553 38.9747 38.1241H37.762ZM37.7952 35.5519L37.3664 35.9807L37.3723 35.9865L37.7952 35.5519ZM37.7952 33.3092L38.2181 33.7438L38.224 33.738L38.2298 33.7321L37.7952 33.3092ZM44.3839 32.663L44.4924 32.0664L44.4615 32.0608L44.4301 32.0584L44.3839 32.663ZM42.5594 32.5236L42.2203 33.0264L42.3533 33.116L42.5132 33.1282L42.5594 32.5236ZM39.8352 30.6864L40.1742 30.1836L40.1715 30.1818L39.8352 30.6864ZM39.2903 29.5714H38.6839L38.684 29.5815L39.2903 29.5714ZM39.7592 28.3296L40.1936 28.7527L40.1992 28.7469L40.2047 28.7409L39.7592 28.3296ZM40.8615 27.8228L40.8498 27.2165L40.8496 27.2165L40.8615 27.8228ZM42.0399 28.2663L41.6398 28.7219L41.6425 28.7243L42.0399 28.2663ZM46.2465 31.9154L45.8492 32.3735L45.8494 32.3737L46.2465 31.9154ZM46.9181 33.1318L46.3175 33.2161L46.3194 33.228L46.9181 33.1318ZM46.728 34.4749L46.1813 34.2125L46.1771 34.2215L46.728 34.4749ZM45.689 35.5646L45.9984 36.0861L46.0049 36.0822L45.689 35.5646ZM43.8391 38.8716L43.42 38.4334L43.4102 38.4427L43.4009 38.4525L43.8391 38.8716ZM42.458 38.8716L42.8868 38.4429L42.458 38.8716ZM42.458 37.4905L42.0389 37.0523L42.0291 37.0616L42.0198 37.0714L42.458 37.4905ZM43.8391 37.4905L43.4103 37.9193L43.8391 37.4905ZM38.9229 35.4017C38.6403 35.4017 38.4165 35.3104 38.2181 35.1173L37.3723 35.9865C37.799 36.4017 38.327 36.6144 38.9229 36.6144V35.4017ZM38.224 35.1231C38.0243 34.9235 37.9328 34.7015 37.9328 34.4242H36.72C36.72 35.0254 36.941 35.5552 37.3664 35.9807L38.224 35.1231ZM37.9328 34.4242C37.9328 34.1473 38.0238 33.9328 38.2181 33.7438L37.3723 32.8746C36.9415 33.2938 36.72 33.8226 36.72 34.4242H37.9328ZM38.2298 33.7321C38.4188 33.5378 38.6333 33.4468 38.9102 33.4468V32.234C38.3086 32.234 37.7798 32.4555 37.3606 32.8863L38.2298 33.7321ZM38.9102 33.4468H44.3713V32.234H38.9102V33.4468ZM44.3713 33.4468C44.4611 33.4468 44.6277 33.4372 44.7908 33.342C45.0043 33.2175 45.1297 32.9949 45.1297 32.7517H43.9169C43.9169 32.6778 43.9336 32.5838 43.9873 32.4897C44.0412 32.3953 44.1144 32.3326 44.1798 32.2944C44.2413 32.2585 44.2944 32.245 44.3221 32.2396C44.3508 32.234 44.3689 32.234 44.3713 32.234V33.4468ZM45.1297 32.7517C45.1297 32.461 44.9523 32.2742 44.814 32.1863C44.6935 32.1096 44.5688 32.0803 44.4924 32.0664L44.2755 33.2596C44.292 33.2626 44.237 33.2565 44.1629 33.2094C44.1213 33.183 44.0586 33.1339 44.0055 33.0518C43.9487 32.9639 43.9169 32.8596 43.9169 32.7517H45.1297ZM44.4301 32.0584L42.6056 31.919L42.5132 33.1282L44.3378 33.2676L44.4301 32.0584ZM42.8984 32.0209L40.1742 30.1836L39.4961 31.1891L42.2203 33.0264L42.8984 32.0209ZM40.1715 30.1818C40.0153 30.0777 39.9025 29.912 39.8966 29.5613L38.684 29.5815C38.6951 30.2444 38.9455 30.822 39.4988 31.1909L40.1715 30.1818ZM39.8967 29.5714C39.8967 29.2 40.0061 28.9453 40.1936 28.7527L39.3247 27.9066C38.8872 28.356 38.684 28.929 38.684 29.5714H39.8967ZM40.2047 28.7409C40.4019 28.5273 40.615 28.4341 40.8734 28.4291L40.8496 27.2165C40.2464 27.2284 39.7246 27.4731 39.3136 27.9183L40.2047 28.7409ZM40.8732 28.4291C41.1532 28.4237 41.401 28.5123 41.6398 28.7219L42.44 27.8106C41.9861 27.4121 41.4483 27.205 40.8498 27.2165L40.8732 28.4291ZM41.6425 28.7243L45.8492 32.3735L46.6439 31.4574L42.4372 27.8082L41.6425 28.7243ZM45.8494 32.3737C46.123 32.6108 46.2711 32.8851 46.3176 33.2161L47.5186 33.0475C47.4299 32.4155 47.1303 31.879 46.6437 31.4572L45.8494 32.3737ZM46.3194 33.228C46.3763 33.582 46.3293 33.9043 46.1814 34.2125L47.2747 34.7373C47.5322 34.2008 47.6119 33.6277 47.5168 33.0356L46.3194 33.228ZM46.1771 34.2215C46.0447 34.5094 45.795 34.7896 45.3732 35.047L46.0049 36.0822C46.5798 35.7314 47.0228 35.2852 47.2789 34.7283L46.1771 34.2215ZM45.3797 35.0431C44.9872 35.2759 44.5184 35.4017 43.9531 35.4017V36.6144C44.7057 36.6144 45.3941 36.4446 45.9984 36.0861L45.3797 35.0431ZM43.9531 35.4017H38.9229V36.6144H43.9531V35.4017ZM43.4009 38.4525C43.3302 38.5264 43.2607 38.5567 43.1549 38.5567V39.7694C43.5897 39.7694 43.9764 39.6054 44.2773 39.2908L43.4009 38.4525ZM43.1549 38.5567C43.0484 38.5567 42.9694 38.5255 42.8868 38.4429L42.0292 39.3004C42.3351 39.6063 42.7208 39.7694 43.1549 39.7694V38.5567ZM42.8868 38.4429C42.8182 38.3743 42.7856 38.302 42.7856 38.1874H41.5729C41.5729 38.6134 41.7261 38.9973 42.0292 39.3004L42.8868 38.4429ZM42.7856 38.1874C42.7856 38.0723 42.819 37.9904 42.8962 37.9097L42.0198 37.0714C41.7254 37.3792 41.5729 37.7619 41.5729 38.1874H42.7856ZM42.8771 37.9287C42.9579 37.8515 43.0398 37.8181 43.1549 37.8181V36.6054C42.7294 36.6054 42.3467 36.7579 42.0389 37.0523L42.8771 37.9287ZM43.1549 37.8181C43.2695 37.8181 43.3418 37.8508 43.4103 37.9193L44.2679 37.0618C43.9647 36.7586 43.5809 36.6054 43.1549 36.6054V37.8181ZM43.4103 37.9193C43.493 38.002 43.5242 38.0809 43.5242 38.1874H44.7369C44.7369 37.7533 44.5738 37.3677 44.2679 37.0618L43.4103 37.9193ZM43.5242 38.1874C43.5242 38.2932 43.4939 38.3627 43.42 38.4334L44.2582 39.3098C44.5729 39.0089 44.7369 38.6222 44.7369 38.1874H43.5242Z" fill="black"/>
</g>
<defs>
<filter id="filter0_d_1957_2644" x="3.70793" y="12.458" width="62.5839" height="50.1503" filterUnits="userSpaceOnUse" color-interpolation-filters="sRGB">
<feFlood flood-opacity="0" result="BackgroundImageFix"/>
<feColorMatrix in="SourceAlpha" type="matrix" values="0 0 0 0 0 0 0 0 0 0 0 0 0 0 0 0 0 0 127 0" result="hardAlpha"/>
<feOffset dy="1.45833"/>
<feGaussianBlur stdDeviation="0.729167"/>
<feComposite in2="hardAlpha" operator="out"/>
<feColorMatrix type="matrix" values="0 0 0 0 0.0465317 0 0 0 0 0.0465317 0 0 0 0 0.0465317 0 0 0 0.3 0"/>
<feBlend mode="normal" in2="BackgroundImageFix" result="effect1_dropShadow_1957_2644"/>
<feBlend mode="normal" in="SourceGraphic" in2="effect1_dropShadow_1957_2644" result="shape"/>
</filter>
</defs>
</svg>
