<svg width="95" height="40" viewBox="0 0 95 40" fill="none" xmlns="http://www.w3.org/2000/svg">
<path d="M2.15047 31.5561V11.9256H14.9648V15.3882H5.85844V19.5869H13.3289V23.0495H5.85844V28.0935H14.9648V31.5561H2.15047ZM22.7854 31.5561V15.3882H16.5964V11.9256H32.6825V15.3882H26.4934V31.5561H22.7854ZM43.2979 31.965C41.3622 31.965 39.6763 31.5424 38.2404 30.6972C36.8044 29.8429 35.7002 28.6433 34.9277 27.0983C34.1643 25.5533 33.7826 23.7675 33.7826 21.7408C33.7826 19.7142 34.1643 17.9283 34.9277 16.3834C35.7002 14.8384 36.8044 13.6433 38.2404 12.7981C39.6763 11.9438 41.3622 11.5166 43.2979 11.5166C45.2337 11.5166 46.9196 11.9438 48.3555 12.7981C49.7914 13.6433 50.8911 14.8384 51.6545 16.3834C52.427 17.9283 52.8133 19.7142 52.8133 21.7408C52.8133 23.7675 52.427 25.5533 51.6545 27.0983C50.8911 28.6433 49.7914 29.8429 48.3555 30.6972C46.9196 31.5424 45.2337 31.965 43.2979 31.965ZM43.2979 28.4752C44.5158 28.4933 45.5427 28.2298 46.3788 27.6845C47.2149 27.1301 47.842 26.3485 48.2601 25.3398C48.6781 24.3219 48.8872 23.1222 48.8872 21.7408C48.8872 20.3685 48.6781 19.1825 48.2601 18.1828C47.842 17.174 47.2149 16.397 46.3788 15.8517C45.5518 15.3064 44.5248 15.0247 43.2979 15.0065C42.0801 14.9883 41.0532 15.2564 40.2171 15.8108C39.3809 16.3561 38.7539 17.1377 38.3358 18.1556C37.9177 19.1643 37.7087 20.3594 37.7087 21.7408C37.7087 23.1132 37.9177 24.3037 38.3358 25.3125C38.7539 26.3122 39.3764 27.0847 40.2034 27.63C41.0395 28.1753 42.071 28.457 43.2979 28.4752ZM66.713 11.9256H71.239L57.3204 27.1528L57.3477 22.068L66.713 11.9256ZM67.1629 31.5561L59.3925 22.068L62.8415 20.6639L71.757 31.5561H67.1629ZM55.5346 31.5561V11.9256H59.1062V31.5561H55.5346Z" fill="white"/>
<path d="M89.9066 3.05176e-05L79.5059 9.83138L89.9066 19.557H94.0486L84.108 9.83138L94.0486 3.05176e-05H89.9066Z" fill="white"/>
<path d="M77.4156 31.5246L87.8164 21.6932L77.4156 11.9676L73.2737 11.9676L83.2143 21.6932L73.2737 31.5246L77.4156 31.5246Z" fill="white"/>
<path d="M94.7871 24.6093C94.7871 26.2718 93.6194 27.5677 92.2388 27.5677C90.8582 27.5677 89.6905 26.2718 89.6905 24.6093C89.6905 22.9467 90.8582 21.6509 92.2388 21.6509C93.6194 21.6509 94.7871 22.9467 94.7871 24.6093Z" stroke="white" stroke-width="0.426008"/>
</svg>
