<svg width="54" height="53" viewBox="0 0 54 53" fill="none" xmlns="http://www.w3.org/2000/svg">
<path d="M44.7513 9.21023L48.397 9.65432C49.5582 9.79577 50.4593 10.7352 50.5522 11.9013L52.7417 39.3825C52.8488 40.7256 51.8556 41.9049 50.5139 42.0281L6.84074 46.0365C5.4756 46.1618 4.27135 45.1472 4.16308 43.7807L1.27043 7.26744C1.14822 5.72488 2.46335 4.45377 4.00087 4.62839L7.2044 4.99224L8.74684 5.16743L10.2893 5.34261L13.3741 5.69298L25.7136 7.09445L32.5934 7.91684" stroke="#3988FF" stroke-width="2.46046"/>
<path d="M45.6347 44.9663C37.0426 45.9604 20.1495 47.9138 14.8109 48.5274C14.5434 48.5582 14.5171 48.9345 14.776 49.0086L23.9374 51.63C25.3527 52.035 26.8482 52.0704 28.2811 51.7328L44.1359 47.9977C45.4418 47.6901 46.1995 46.3252 45.7699 45.0541C45.7503 44.996 45.6957 44.9592 45.6347 44.9663Z" fill="#3988FF"/>
<ellipse cx="6.46696" cy="7.56919" rx="6.46696" ry="7.56919" transform="matrix(0.989651 0.143493 0.0989724 0.99509 31.5588 0.673828)" stroke="#3988FF" stroke-width="1.55207"/>
<path d="M8.37967 1.93104C8.31993 1.19431 8.77884 0.590306 9.48816 0.472088C10.4624 0.30971 11.4782 1.11259 11.5802 2.12572L12.2471 8.7447C12.3385 9.65248 11.6778 10.3533 10.7661 10.3157C9.82875 10.2769 8.99134 9.47428 8.91575 8.54206L8.37967 1.93104Z" fill="#5C9BFA"/>
<path d="M12.8294 2.60486C12.7696 1.86814 13.2286 1.26413 13.9379 1.14592C14.9121 0.983539 15.9279 1.78642 16.03 2.79955L16.6968 9.41853C16.7882 10.3263 16.1276 11.0271 15.2158 10.9895C14.2785 10.9508 13.441 10.1481 13.3655 9.21589L12.8294 2.60486Z" fill="#5C9BFA"/>
<path d="M17.4856 3.63959C17.4259 2.90287 17.8848 2.29886 18.5941 2.18064C19.5684 2.01827 20.5841 2.82115 20.6862 3.83428L21.353 10.4533C21.4445 11.361 20.7838 12.0619 19.8721 12.0242C18.9347 11.9855 18.0973 11.1828 18.0217 10.2506L17.4856 3.63959Z" fill="#5C9BFA"/>
<path d="M22.1419 4.15699C22.0821 3.42027 22.5411 2.81626 23.2504 2.69804C24.2246 2.53566 25.2404 3.33855 25.3425 4.35168L26.0093 10.9707C26.1007 11.8784 25.4401 12.5793 24.5283 12.5416C23.591 12.5029 22.7535 11.7002 22.678 10.768L22.1419 4.15699Z" fill="#5C9BFA"/>
<rect x="0.283926" y="0.270947" width="2.06943" height="9.31242" rx="1.03471" transform="matrix(0.99863 0.052336 0.0989724 0.99509 8.76849 0.142965)" fill="#3988FF" stroke="#3988FF" stroke-width="0.517357"/>
<rect x="0.283926" y="0.270947" width="2.06943" height="9.31242" rx="1.03471" transform="matrix(0.99863 0.052336 0.0989724 0.99509 13.2184 0.816793)" fill="#3988FF" stroke="#3988FF" stroke-width="0.517357"/>
<rect x="0.283926" y="0.270947" width="2.06943" height="9.31242" rx="1.03471" transform="matrix(0.99863 0.052336 0.0989724 0.99509 17.8747 1.85152)" fill="#3988FF" stroke="#3988FF" stroke-width="0.517357"/>
<rect x="0.283926" y="0.270947" width="2.06943" height="9.31242" rx="1.03471" transform="matrix(0.99863 0.052336 0.0989724 0.99509 22.5309 2.36886)" fill="#3988FF" stroke="#3988FF" stroke-width="0.517357"/>
<rect x="0.283926" y="0.270947" width="2.06943" height="1.79485" rx="0.897426" transform="matrix(0.99863 0.052336 0.0989724 0.99509 9.51264 7.62362)" fill="white" stroke="#3988FF" stroke-width="0.517357"/>
<rect x="0.283926" y="0.270947" width="2.06943" height="1.79485" rx="0.897426" transform="matrix(0.99863 0.052336 0.0989724 0.99509 13.9626 8.29744)" fill="white" stroke="#3988FF" stroke-width="0.517357"/>
<rect x="0.283926" y="0.270947" width="2.06943" height="1.79485" rx="0.897426" transform="matrix(0.99863 0.052336 0.0989724 0.99509 18.6186 9.33217)" fill="white" stroke="#3988FF" stroke-width="0.517357"/>
<rect x="0.283926" y="0.270947" width="2.06943" height="1.79485" rx="0.897426" transform="matrix(0.99863 0.052336 0.0989724 0.99509 23.2748 9.84951)" fill="white" stroke="#3988FF" stroke-width="0.517357"/>
<rect x="0.311754" y="0.253175" width="0.517357" height="5.88759" rx="0.258678" transform="matrix(1 0 0.205179 0.978724 36.7889 4.30074)" fill="#3988FF" stroke="#3988FF" stroke-width="0.517357"/>
<path d="M38.0279 9.96287C37.9701 9.68713 38.1387 9.47218 38.4147 9.46982L42.121 9.43812C42.4149 9.43561 42.7196 9.67822 42.7919 9.97233C42.8601 10.2495 42.6959 10.471 42.4194 10.4748L38.7187 10.5263C38.4111 10.5306 38.0924 10.2707 38.0279 9.96287Z" fill="#3988FF"/>
</svg>
