<svg width="38" height="35" viewBox="0 0 38 35" fill="none" xmlns="http://www.w3.org/2000/svg">
<path d="M18.9998 0V17.4996L17.9274 16.4072L13.1289 11.5212L18.9998 0Z" fill="url(#paint0_linear_1376_864)"/>
<path d="M19 17.5003L9.49981 22.337L0 13.3691L16.9948 17.0634L19 17.5003Z" fill="url(#paint1_linear_1376_864)"/>
<path d="M19.0004 17.5V29.0208L7.25781 35.0003L19.0004 17.5Z" fill="url(#paint2_linear_1376_864)"/>
<path d="M30.7425 35.0003L19 17.5L28.5002 22.3367L30.7425 35.0003Z" fill="url(#paint3_linear_1376_864)"/>
<path d="M38 13.3688L19 17.4999L24.872 11.5215L38 13.3688Z" fill="url(#paint4_linear_1376_864)"/>
<path d="M19.0004 17.5L7.25781 35.0003L9.50017 22.3367L19.0004 17.5Z" fill="url(#paint5_linear_1376_864)"/>
<path d="M24.872 11.5212L19 17.4996V0L24.872 11.5212Z" fill="url(#paint6_linear_1376_864)"/>
<path d="M19 17.4999L16.9948 17.0631L0 13.3688L13.1291 11.5215L17.9276 16.4075L19 17.4999Z" fill="url(#paint7_linear_1376_864)"/>
<path d="M38 13.3691L28.5002 22.337L19 17.5003L38 13.3691Z" fill="url(#paint8_linear_1376_864)"/>
<path d="M30.7425 35.0003L19 29.0208V17.5L30.7425 35.0003Z" fill="url(#paint9_linear_1376_864)"/>
<defs>
<linearGradient id="paint0_linear_1376_864" x1="13.2886" y1="8.93237" x2="17.9518" y2="8.77325" gradientUnits="userSpaceOnUse">
<stop stop-color="#99A3A6"/>
<stop offset="1" stop-color="#7A8282"/>
</linearGradient>
<linearGradient id="paint1_linear_1376_864" x1="9.50617" y1="15.3969" x2="8.80564" y2="19.9294" gradientUnits="userSpaceOnUse">
<stop stop-color="#99A3A6"/>
<stop offset="1" stop-color="#7A8282"/>
</linearGradient>
<linearGradient id="paint2_linear_1376_864" x1="13.6501" y1="26.7547" x2="16.2007" y2="29.3881" gradientUnits="userSpaceOnUse">
<stop stop-color="#99A3A6"/>
<stop offset="1" stop-color="#7A8282"/>
</linearGradient>
<linearGradient id="paint3_linear_1376_864" x1="28.9056" y1="24.3235" x2="25.3228" y2="26.148" gradientUnits="userSpaceOnUse">
<stop stop-color="#99A3A6"/>
<stop offset="1" stop-color="#7A8282"/>
</linearGradient>
<linearGradient id="paint4_linear_1376_864" x1="28.2006" y1="12.3416" x2="28.4807" y2="15.4246" gradientUnits="userSpaceOnUse">
<stop stop-color="#99A3A6"/>
<stop offset="1" stop-color="#7A8282"/>
</linearGradient>
<linearGradient id="paint5_linear_1376_864" x1="12.4491" y1="25.6826" x2="9.64491" y2="23.1862" gradientUnits="userSpaceOnUse">
<stop stop-color="#AEBABD"/>
<stop offset="1" stop-color="#8C9494"/>
</linearGradient>
<linearGradient id="paint6_linear_1376_864" x1="18.9428" y1="8.75162" x2="23.4664" y2="8.59752" gradientUnits="userSpaceOnUse">
<stop stop-color="#AEBABD"/>
<stop offset="1" stop-color="#8C9494"/>
</linearGradient>
<linearGradient id="paint7_linear_1376_864" x1="9.72237" y1="14.8137" x2="10.8959" y2="11.3239" gradientUnits="userSpaceOnUse">
<stop stop-color="#AEBABD"/>
<stop offset="1" stop-color="#8C9494"/>
</linearGradient>
<linearGradient id="paint8_linear_1376_864" x1="28.495" y1="15.4164" x2="29.8996" y2="20.879" gradientUnits="userSpaceOnUse">
<stop stop-color="#AEBABD"/>
<stop offset="1" stop-color="#8C9494"/>
</linearGradient>
<linearGradient id="paint9_linear_1376_864" x1="24.425" y1="26.4958" x2="20.4622" y2="28.8197" gradientUnits="userSpaceOnUse">
<stop stop-color="#AEBABD"/>
<stop offset="1" stop-color="#8C9494"/>
</linearGradient>
</defs>
</svg>
