<svg width="109" height="124" viewBox="0 0 109 124" fill="none" xmlns="http://www.w3.org/2000/svg">
<path d="M101 49.0002H96.2L95 55.0002H91.2L92.4 49.0002H87.5L86.3 55.0002H81V60.0002H85.4L84.5 64.0002H81V69.0002H83.5L82.3 75.0002H87.1L88.3 69.0002H92.1L90.9 75.0002H95.8L97 69.0002H102V64.0002H97.9L98.8 60.0002H102V55.0002H99.8L101 49.0002V49.0002ZM93.1 64.0002H89.3L90.2 60.0002H94L93.1 64.0002ZM108.5 31.3002C107.9 30.2002 107.1 29.2002 106.2 28.7002L58.1 0.900195C57.3 0.400195 56.2 0.200195 55 0.200195C53.8 0.200195 52.7 0.500195 51.9 0.900195L3.4 28.7002C1.7 29.7002 0 32.2002 0 34.1002V89.8002C0 90.9002 0.7 92.1002 1.4 93.2002L1.5 93.3002C2 94.1002 2.8 94.8002 3.5 95.2002L51.8 123.1C52.6 123.6 53.8 123.8 55 123.8C56.2 123.8 57.3 123.5 58.1 123.1L105.6 95.2002C107.3 94.2002 108 91.7002 108 89.8002V34.1002C108 33.3002 108.4 32.3002 108 31.5002L108.5 31.3002ZM104.3 33.4002C104.3 33.7002 104 33.9002 104 34.1002V89.8002C104 90.6002 103.8 91.5002 103.6 91.8002L56 119.6C55.9 119.7 55.5 119.8 54.9 119.8C54.3 119.8 53.9 119.7 53.8 119.6L5.6 91.8002C5.6 91.8002 5.5 91.7002 5.4 91.7002L4.8 91.1002C4.4 90.4002 5 90.0002 4 89.9002V34.2002C5 33.7002 4.9 32.5002 5.4 32.3002L53.7 4.4002C53.8 4.4002 54.3 4.2002 54.9 4.2002C55.5 4.2002 55.9 4.3002 56 4.4002L104 32.1002L104.4 33.0002C104.5 33.1002 104.3 33.3002 104.3 33.4002V33.4002ZM55 86.5002C41.5 86.5002 30.5 75.5002 30.5 62.0002C30.5 48.5002 41.5 37.5002 55 37.5002C64.1 37.5002 72.1 42.5002 76.3 50.0002L89.3 42.5002C82.5 30.6002 69.7 22.5002 55 22.5002C33.2 22.5002 15.5 40.2002 15.5 62.0002C15.5 83.8002 33.2 101.5 55 101.5C69.6 101.5 82.4 93.5002 89.2 81.7002L76.3 74.1002C72.1 81.5002 64.1 86.5002 55 86.5002Z" fill="#68217A"/>
</svg>
