<svg width="109" height="46" viewBox="0 0 109 46" fill="none" xmlns="http://www.w3.org/2000/svg">
<path d="M14.2268 11.4498V27.6778C14.2268 33.2678 13.8178 35.9498 12.5908 38.2678C11.4538 40.4968 9.95379 41.9048 6.86279 43.4508L0.362793 40.3598C3.45379 38.9048 4.95279 37.6328 5.90779 35.6778C6.90779 33.6778 7.22779 31.3598 7.22779 25.2678V11.4498H14.2268ZM7.22679 0.676758H14.2268V7.85876H7.22679V0.676758ZM18.4558 13.0408C21.5458 11.5868 24.5008 10.9508 27.7288 10.9508C31.3188 10.9508 33.6828 11.9048 34.7288 13.7688C35.3188 14.8138 35.5008 16.1778 35.5008 19.0868V33.3138C32.3648 33.7688 28.4108 34.0868 25.5008 34.0868C19.6378 34.0868 17.0008 32.0408 17.0008 27.4958C17.0008 22.5858 20.5008 20.3138 29.0918 19.5858V18.0408C29.0918 16.7678 28.4558 16.3138 26.6828 16.3138C24.0928 16.3138 21.1828 17.0408 18.4548 18.4508V13.0408H18.4558ZM29.4098 24.1778C24.7738 24.6318 23.2738 25.3598 23.2738 27.1778C23.2738 28.5408 24.1378 29.1778 26.0468 29.1778C27.0918 29.1778 28.0468 29.0878 29.4098 28.8598V24.1778ZM38.9118 12.5408C43.0478 11.4508 46.4568 10.9508 49.9118 10.9508C53.5028 10.9508 56.0938 11.7678 57.6398 13.3598C59.0948 14.8598 59.5488 16.4948 59.5488 19.9958V33.7228H52.5488V20.2698C52.5488 17.5878 51.6388 16.5878 49.1388 16.5878C48.1848 16.5878 47.3218 16.6778 45.9118 17.0878V33.7238H38.9118V12.5408ZM62.2688 37.5408C64.7238 38.8138 67.1778 39.4048 69.7688 39.4048C74.3588 39.4048 76.3138 37.5408 76.3138 33.0858V32.9498C74.9508 33.6318 73.5868 33.9048 71.7688 33.9048C65.6318 33.9048 61.7228 29.8588 61.7228 23.4498C61.7228 15.4948 67.4958 10.9948 77.7228 10.9948C80.7228 10.9948 83.4958 11.3128 86.8598 11.9948L84.4628 17.0448C82.5988 16.6808 84.3128 16.9948 82.9048 16.8588V17.5868L82.9948 20.5408L83.0408 24.3588C83.0868 25.3138 83.0868 26.2688 83.1318 27.2228V29.1328C83.1318 35.1328 82.6318 37.9498 81.1318 40.2678C78.9498 43.6778 75.1778 45.3598 69.8138 45.3598C67.0858 45.3598 64.7238 44.9498 62.2678 43.9958V37.5398L62.2688 37.5408ZM76.1788 16.6308H75.4508C74.0878 16.5858 72.4968 16.9488 71.4048 17.6308C69.7238 18.5858 68.8598 20.3128 68.8598 22.7678C68.8598 26.2678 70.5868 28.2678 73.6778 28.2678C74.6328 28.2678 75.4058 28.0858 76.3138 27.8138V25.4038C76.3138 24.5868 76.2688 23.6768 76.2688 22.7228L76.2238 19.4958L76.1778 17.1768V16.6318L76.1788 16.6308ZM97.7268 10.8598C104.727 10.8598 109 15.2688 109 22.4048C109 29.7238 104.546 34.3148 97.4538 34.3148C90.4538 34.3148 86.1358 29.9048 86.1358 22.8148C86.1358 15.4498 90.5908 10.8588 97.7268 10.8588V10.8598ZM97.5898 28.6778C100.272 28.6778 101.864 26.4498 101.864 22.5868C101.864 18.7688 100.318 16.4958 97.6368 16.4958C94.8628 16.4958 93.2718 18.7238 93.2718 22.5858C93.2718 26.4508 94.8628 28.6778 97.5898 28.6778Z" fill="#092E20"/>
</svg>
